<svg xmlns="http://www.w3.org/2000/svg" width="578.811" height="668.48" viewBox="0 0 578.811 668.48">
  <g id="Group_14031" data-name="Group 14031" transform="translate(-364.25 -103.548)">
    <g id="Character_4" data-name="Character 4" transform="translate(668.82 504.924)">
      <rect id="Rectangle_2374" data-name="Rectangle 2374" width="244.511" height="244.511" fill="#455a64"/>
      <g id="Group_13048" data-name="Group 13048" transform="translate(14.316 2.503)">
        <g id="Group_13047" data-name="Group 13047">
          <g id="Group_13046" data-name="Group 13046">
            <g id="Group_13020" data-name="Group 13020" transform="translate(32.726 86.989)">
              <g id="Group_13019" data-name="Group 13019">
                <path id="Path_19947" data-name="Path 19947" d="M509.673,490.161H645.708c.57-5.2-20.267-115.738-44.743-151.276-2.776-4.033-26.564-6.967-35.3,3.063C519.41,395.072,508.556,488.887,509.673,490.161Z" transform="translate(-509.597 -335.143)" fill="#263238"/>
              </g>
            </g>
            <g id="Group_13023" data-name="Group 13023" transform="translate(81.313 92.032)">
              <path id="Path_19948" data-name="Path 19948" d="M578.525,344.161c3.862,10,18.427,45.071,26.345,70.24,5.314,16.89,7.338,31.066,8.5,34.792,0,0-40.167-12.9-49.211-12.923-13.929-.036-36.271,29.054-30.79,32.7,8.616,5.731,49.683,25.224,82.481,31.343,17.829,3.326,51.417-19.332,48.764-37.348-3.726-25.281-49.412-91.925-66.8-110.825C588.792,342.328,573.822,331.97,578.525,344.161Z" transform="translate(-532.521 -336.287)" fill="#eb9481"/>
              <g id="Group_13022" data-name="Group 13022" transform="translate(6.558)">
                <path id="Path_19949" data-name="Path 19949" d="M663.6,469.541c-.842,18.213-23.622,33.543-36.833,34.355-22.787,1.382-91.147-18.527-91.147-18.527l26.57-51.192s46.517,15.788,47.7,16.233v-.021c-.411-1.356-11.876-44.429-17-58.7-.273-.786-.589-1.594-.888-2.442-1.473-3.953-3.5-9.173-5.731-14.813l-.023-.04c-1.238-3.122-2.548-6.384-3.832-9.608l0-.021c-5.619-13.955-11.094-27.238-11.094-27.238,7.832,1.287,15.562,5.4,28.257,18.728C612.246,369.557,664.986,439.5,663.6,469.541Z" transform="translate(-535.615 -337.523)" fill="#263238"/>
                <g id="Group_13021" data-name="Group 13021" transform="translate(11.545 36.907)">
                  <path id="Path_19950" data-name="Path 19950" d="M547.232,419.3c1.9-3.624,3.821-7.232,5.727-10.852q2.8-5.316,5.661-10.6a122.465,122.465,0,0,0,5.627-11.115.069.069,0,0,0-.119-.068,92.951,92.951,0,0,0-6.324,10.057c-2.035,3.55-4.019,7.132-5.985,10.723-1.927,3.516-3.781,7.071-5.61,10.638a91.341,91.341,0,0,0-5.138,11.375c-.053.157.161.309.265.157A109.025,109.025,0,0,0,547.232,419.3Z" transform="translate(-541.062 -319.442)" fill="#37474f"/>
                  <path id="Path_19951" data-name="Path 19951" d="M597.355,438.468l-14.2-7.533-.021-.019v-.021c-.411-1.356-11.876-44.429-17-58.7-.273-.786-.589-1.594-.888-2.442-1.473-3.953-3.5-9.173-5.731-14.813Z" transform="translate(-520.406 -354.936)" fill="#37474f"/>
                  <path id="Path_19952" data-name="Path 19952" d="M596.942,404.831a118.017,118.017,0,0,0-12.48-8.005c-2.143-1.212-4.324-2.329-6.571-3.332-2.389-1.066-4.913-1.84-7.287-2.912a.155.155,0,0,0-.134.28c2.217,1,4.324,2.4,6.464,3.567q3.338,1.822,6.715,3.565c4.428,2.276,8.775,4.693,13.175,7.018A.109.109,0,0,0,596.942,404.831Z" transform="translate(-508.234 -315.048)" fill="#37474f"/>
                </g>
              </g>
            </g>
            <g id="Group_13030" data-name="Group 13030" transform="translate(0 91.932)">
              <g id="Group_13025" data-name="Group 13025" transform="translate(2.966 5.471)">
                <path id="Path_19953" data-name="Path 19953" d="M670.373,450.345c-3.565.049-25.089-5.7-28.223-2.747-19.1,18.009-25.142,14.381-29.209,16.727-31.479,18.111-73.515,39.387-88.519,39.52-22.755.184-31.82-18.91-28.03-36.954,7.478-35.669,55.58-105.214,77.345-123.692,11.541-9.786,10.629,4.972,5.854,21.013-2.8,9.406-7.7,23.391-12.69,37.115-4.425,12.225-16.148,43.465-16.352,44.2l0,.021c-.019.042-.038.066-.036.085-.015.083.068.1.25.047,1-.182,27.918-12.87,54.988-19.839,9.54-2.457,29.406-5.954,36.528-2.774,4.237,1.891,4.309,4.417,4.309,4.417a10.42,10.42,0,0,1,6.975,2.641,10.2,10.2,0,0,1,3.114,4.722s3.715.519,5.648,2.673a9.8,9.8,0,0,1,2.507,5.286C669.845,444.144,670.373,450.345,670.373,450.345Z" transform="translate(-495.556 -340.057)" fill="#eb9481"/>
                <g id="Group_13024" data-name="Group 13024" transform="translate(80.262 86.093)">
                  <path id="Path_19954" data-name="Path 19954" d="M567.592,380.951a53.387,53.387,0,0,0-8.491.952c-.191.034-.184.331.017.309,2.77-.305,5.572-.369,8.357-.462,2.766-.091,5.576-.15,8.342-.1.019,0,.021-.028,0-.03A45.563,45.563,0,0,0,567.592,380.951Z" transform="translate(-504.834 -380.373)" fill="#263238"/>
                  <path id="Path_19955" data-name="Path 19955" d="M579.556,385.566a34.415,34.415,0,0,0-15.044-1.329c-.2.026-.184.322.013.309a58.462,58.462,0,0,1,15.021,1.125C579.609,385.682,579.611,385.581,579.556,385.566Z" transform="translate(-498.781 -377.04)" fill="#263238"/>
                  <path id="Path_19956" data-name="Path 19956" d="M583.005,389.866a33.7,33.7,0,0,0-14.228-2.669c-.193,0-.259.284-.057.3a83.046,83.046,0,0,1,14.213,2.584A.116.116,0,0,0,583.005,389.866Z" transform="translate(-494.047 -373.376)" fill="#263238"/>
                  <path id="Path_19957" data-name="Path 19957" d="M562.042,380.678a64.821,64.821,0,0,0-7.037,1.573c-2.465.608-4.922,1.278-7.333,2.073a139.119,139.119,0,0,0-14.152,5.615.154.154,0,0,0,.106.288c4.714-1.649,9.472-3.2,14.237-4.7,2.342-.735,4.671-1.52,7-2.283,2.393-.784,4.888-1.378,7.24-2.27A.155.155,0,0,0,562.042,380.678Z" transform="translate(-533.424 -380.676)" fill="#263238"/>
                </g>
              </g>
              <g id="Group_13027" data-name="Group 13027">
                <path id="Path_19958" data-name="Path 19958" d="M587.174,434.147c4.983-1.687,7.234-1.7,7.234-1.7l28.321,47.827S544.723,508.359,528.706,510s-34.239-10.97-34.546-31.078c-.43-28.262,45.654-96.132,68.837-122.376,10.625-12.028,23.014-20.765,26.172-18.794,3.732,2.329-3.046,17.452-6.617,28.734-6.594,20.828-30.22,82.08-30.22,82.08S581.242,436.156,587.174,434.147Z" transform="translate(-494.157 -337.476)" fill="#263238"/>
                <g id="Group_13026" data-name="Group 13026" transform="translate(26.943 45.111)">
                  <path id="Path_19959" data-name="Path 19959" d="M579.925,382.267c-4.394.259-23.393,6.874-32.712,10.873a160.559,160.559,0,0,0-26.6,14.37c-4.741,3.2-9.241,6.683-13.686,10.282-.153.123.015.369.178.252a282.236,282.236,0,0,1,52.926-28.791c5.318-2.073,14.464-5.178,19.661-6.541C581.162,382.327,580.06,382.259,579.925,382.267Z" transform="translate(-506.869 -332.443)" fill="#37474f"/>
                  <path id="Path_19960" data-name="Path 19960" d="M544.872,366.762c-1.189,1.918-2.393,3.824-3.408,5.841-.047.1-.091.191-.14.286q2.264-6.883,4.313-13.823c.085-.284-.386-.437-.5-.161-6.7,16.977-12.923,34.158-18.957,51.385-1.689,4.818-3.171,9.686-4.705,14.548-.053.17.223.254.292.1,1.842-4.173,3.7-8.317,5.384-12.56s3.251-8.533,4.835-12.815q4.155-11.229,7.95-22.566c.8-1.325,1.6-2.645,2.355-3.993,1.1-1.967,2-4.025,2.912-6.077A.186.186,0,0,0,544.872,366.762Z" transform="translate(-490.521 -358.76)" fill="#37474f"/>
                  <path id="Path_19961" data-name="Path 19961" d="M555.79,416.668c-2.075-3.525-4.122-7.064-6.189-10.593q-3.039-5.186-6.011-10.409a122.767,122.767,0,0,0-6.462-10.648.07.07,0,0,0-.123.063,92.7,92.7,0,0,0,5.2,10.684c1.939,3.6,3.934,7.181,5.943,10.746,1.969,3.493,4.006,6.946,6.07,10.383a90.712,90.712,0,0,0,6.944,10.371c.1.129.348.028.273-.142A109.147,109.147,0,0,0,555.79,416.668Z" transform="translate(-473.137 -329.396)" fill="#37474f"/>
                  <path id="Path_19962" data-name="Path 19962" d="M602.014,412.11c-2.349-4.633-6-9.182-8.711-13.588-.1-.167-.352.006-.252.174,2.457,4.135,4.71,8.59,7.058,12.793-10.714,4.423-22.09,8.368-33.016,12.24-11.214,3.974-22.5,7.743-33.94,11.038-6.395,1.842-12.8,3.838-19.235,5.528-.4.106-.292.435.117.358a292.034,292.034,0,0,0,34.145-9.08c11.428-3.626,22.708-7.677,33.933-11.871C588.433,417.339,602.205,412.485,602.014,412.11Z" transform="translate(-499.256 -314.322)" fill="#37474f"/>
                </g>
              </g>
              <g id="Group_13029" data-name="Group 13029" transform="translate(37.613 65.661)">
                <path id="Path_19963" data-name="Path 19963" d="M585.414,394.391a380.164,380.164,0,0,0-39.277,12.954c-.2.07-.382.138-.564.208-6.689,2.628-10.835,4.578-11.829,4.741a1.712,1.712,0,0,1-.21-.134v-.019a8.949,8.949,0,0,0-2.069-1.14c-1.888-.676-20.014-2.94-19.555-8.554.441-5.551,7.827-5.208,8.913-5.131-1.174-.256-11.011-2.56-7.806-7.473,2.264-3.484,12-2.974,12.986-2.933-.994-.326-10.03-3.272-6.922-8.285,2.225-3.59,13.1-3.122,14.358-2.91-1.017-.386-9.072-1.736-5.312-6.058,2.609-3.01,23.09.051,32.193,4.593C573.856,381,585.414,394.391,585.414,394.391Z" transform="translate(-511.903 -368.455)" fill="#eb9481"/>
                <g id="Group_13028" data-name="Group 13028" transform="translate(8.839 7.157)">
                  <path id="Path_19964" data-name="Path 19964" d="M541.469,392.145c-.2.07-.381.138-.564.208-3.143-2.442-15.038-8.741-24.383-9.941-.579-.074-.617-.4,0-.377C528.059,382.558,538.432,389.351,541.469,392.145Z" transform="translate(-516.073 -360.412)" fill="#263238"/>
                  <path id="Path_19965" data-name="Path 19965" d="M518.973,377.513c12.9,2.56,18.728,5.407,29.819,12.454.157.1.333-.131.182-.244-10.339-7.738-16.774-11.57-29.891-12.539C518.49,377.142,518.384,377.394,518.973,377.513Z" transform="translate(-513.266 -365.845)" fill="#263238"/>
                  <path id="Path_19966" data-name="Path 19966" d="M522.532,372.2c12.376,3.29,18.9,6.14,28.866,14.2.235.191.526-.1.307-.309-9.394-9.11-17.509-12.721-29.056-14.237C521.862,371.754,521.752,371.991,522.532,372.2Z" transform="translate(-509.438 -371.832)" fill="#263238"/>
                </g>
              </g>
            </g>
            <g id="Group_13045" data-name="Group 13045" transform="translate(72.477)">
              <g id="Group_13043" data-name="Group 13043">
                <g id="Group_13032" data-name="Group 13032" transform="translate(20.056 67.728)">
                  <g id="Group_13031" data-name="Group 13031" transform="translate(0.002)">
                    <path id="Path_19967" data-name="Path 19967" d="M566.791,373.817c-7.329,2.637-21.564-7.406-27.73-16.155-.417-.6-.2-7.454-.335-15.79-.1-5.061-.331-10.691-.911-15.816l33.02,4.161s-1.941,11.1-.873,20.025a11.562,11.562,0,0,0,.46,2.077c.021.1.064.21.087.344C571.613,356.581,573.872,371.265,566.791,373.817Z" transform="translate(-537.815 -326.056)" fill="#eb9481"/>
                  </g>
                  <path id="Path_19968" data-name="Path 19968" d="M570.518,352.657a5.154,5.154,0,0,1,.17.721c-19.769-.837-27.286-9.529-32.153-17.867-.148-3.179-.36-6.4-.72-9.453l33.022,4.154s-1.95,11.106-.869,20.029a10.608,10.608,0,0,0,.466,2.077C570.454,352.4,570.476,352.53,570.518,352.657Z" transform="translate(-537.814 -326.055)" fill="#263238"/>
                </g>
                <g id="Group_13042" data-name="Group 13042">
                  <g id="Group_13033" data-name="Group 13033" transform="translate(6.326 10.442)">
                    <path id="Path_19969" data-name="Path 19969" d="M531.533,321.682c-1.791,11.854,9.027,43.745,18.173,49.864,13.258,8.868,32.558,7.06,39.486-8.328,6.717-14.915-8.118-56.224-18.109-61.536C556.367,293.857,534.178,304.17,531.533,321.682Z" transform="translate(-531.336 -299.028)" fill="#eb9481"/>
                  </g>
                  <g id="Group_13038" data-name="Group 13038" transform="translate(28.172 32.258)">
                    <g id="Group_13034" data-name="Group 13034" transform="translate(4.348 13.521)">
                      <path id="Path_19970" data-name="Path 19970" d="M546.1,316.492c-.042-.076-.133.159-.1.246.786,2.128,1.329,4.7-.379,6.062-.053.042-.011.148.059.114C547.942,321.787,547.187,318.383,546.1,316.492Z" transform="translate(-541.568 -314.832)" fill="#263238"/>
                      <path id="Path_19971" data-name="Path 19971" d="M545.556,315.757c-3.548.89-1.5,7.923,1.785,7.1C550.575,322.039,548.53,315.006,545.556,315.757Z" transform="translate(-543.695 -315.701)" fill="#263238"/>
                    </g>
                    <g id="Group_13035" data-name="Group 13035" transform="translate(22.108 8.193)">
                      <path id="Path_19972" data-name="Path 19972" d="M552.085,314.617c-.009-.089.2.053.222.142.566,2.2,1.581,4.621,3.762,4.771.068,0,.093.114.017.125C553.584,320.017,552.268,316.787,552.085,314.617Z" transform="translate(-552.061 -311.617)" fill="#263238"/>
                      <path id="Path_19973" data-name="Path 19973" d="M553.38,313.344c3.425-1.284,5.744,5.661,2.571,6.852C552.827,321.369,550.508,314.421,553.38,313.344Z" transform="translate(-552.074 -313.187)" fill="#263238"/>
                    </g>
                    <path id="Path_19974" data-name="Path 19974" d="M544.144,317.768a28.365,28.365,0,0,0,2.444-1.753c.93-.68,1.74-1.13,2.151-2.259a1.552,1.552,0,0,0-.763-1.732c-1.327-.625-2.673-.074-3.828.7a5.643,5.643,0,0,0-2.438,3.251A1.652,1.652,0,0,0,544.144,317.768Z" transform="translate(-541.643 -306.598)" fill="#263238"/>
                    <path id="Path_19975" data-name="Path 19975" d="M557.007,313.342a28.471,28.471,0,0,1-3.005.089,4.847,4.847,0,0,1-3.082-.5,1.548,1.548,0,0,1-.443-1.838c.676-1.3,2.081-1.679,3.47-1.761a5.647,5.647,0,0,1,3.91,1.106A1.653,1.653,0,0,1,557.007,313.342Z" transform="translate(-531.904 -309.321)" fill="#263238"/>
                    <path id="Path_19976" data-name="Path 19976" d="M548.316,326.276a3.462,3.462,0,0,0,2.2.744,5.988,5.988,0,0,0,2.183-1.229.079.079,0,0,1,.125.085,3.051,3.051,0,0,1-2.42,1.986,2.412,2.412,0,0,1-2.272-1.426C548.065,326.318,548.218,326.223,548.316,326.276Z" transform="translate(-534.395 -290.903)" fill="#263238"/>
                    <g id="Group_13037" data-name="Group 13037" transform="translate(14.227 1.776)">
                      <g id="Group_13036" data-name="Group 13036">
                        <path id="Path_19977" data-name="Path 19977" d="M548.442,336.568a7.724,7.724,0,0,0,5.909,1.859,9.743,9.743,0,0,0,2.7-.655,2.7,2.7,0,0,0,.492-.206c.153-.066.29-.125.456-.212a.565.565,0,0,0,.295-.615l0-.017a1.169,1.169,0,0,0-.085-.216l-.007-.017-.059-.189c-.441-1.691-1.346-4.192-1.346-4.192.7.127,4.235.623,3.93-.237-2.544-7.126-5.371-15.051-9.406-21.606a.21.21,0,0,0-.382.172c2.172,6.946,5.553,13.463,7.846,20.4a13.483,13.483,0,0,0-3.809-.044c-.218.138,1.835,4.807,1.973,5.581a.356.356,0,0,1,.009.085c-2.713,1.181-5.083.947-8.37-.151C548.391,336.236,548.261,336.433,548.442,336.568Z" transform="translate(-548.356 -310.159)" fill="#263238"/>
                      </g>
                    </g>
                  </g>
                  <g id="Group_13040" data-name="Group 13040">
                    <path id="Path_19978" data-name="Path 19978" d="M535.011,338.107c1.872-1.53,4.233-9.375,5.331-12.615,1.14-3.366-2.242-17.011-3.347-21.068a22.393,22.393,0,0,0-5.449,11.337C530.753,320.7,532.29,329.455,535.011,338.107Z" transform="translate(-525.009 -282.545)" fill="#263238" opacity="0.2"/>
                    <g id="Group_13039" data-name="Group 13039">
                      <path id="Path_19979" data-name="Path 19979" d="M557.728,306.315a10.929,10.929,0,0,1-8.561,6.314,11.135,11.135,0,0,1-10.078-4.019.087.087,0,0,0-.14.1c2.389,3.247,6.193,5.392,10.313,4.8a11.252,11.252,0,0,0,8.713-7.086A.136.136,0,0,0,557.728,306.315Z" transform="translate(-516.509 -280.515)" fill="#263238"/>
                      <path id="Path_19980" data-name="Path 19980" d="M545.478,295.942c-6.043,1.882-10.659,6.852-11.691,11.634a12.252,12.252,0,0,0,1.06,8c.047.1.259.017.219-.087a13.45,13.45,0,0,1,2.738-13.436,17.332,17.332,0,0,1,14.226-6,10.967,10.967,0,0,1,6.965,2.916c.182.187.6-.089.435-.284C556.688,295.359,550.946,294.24,545.478,295.942Z" transform="translate(-522.565 -292.923)" fill="#263238"/>
                      <path id="Path_19981" data-name="Path 19981" d="M568.4,300.133a13.953,13.953,0,0,0-7.787-5.568c-4.4-1.238-8.518.316-12.581,1.944a.092.092,0,0,0,.068.172c3.463-1.373,7.058-2.565,10.816-1.831a13.712,13.712,0,0,1,7.942,4.663A13.369,13.369,0,0,1,566.123,317a13.574,13.574,0,0,1-9.991,4.008c-.146,0-.189.218-.038.227a13.655,13.655,0,0,0,12.308-21.1Z" transform="translate(-506.38 -294.083)" fill="#263238"/>
                      <path id="Path_19982" data-name="Path 19982" d="M534.8,333.983s-8.862-9.254-5.812-16.926c1.729-4.347,10.949-6.445,10.949-6.445s1.452-6.055,8.5-9.9c7.117-3.889,17.416-2,17.416-2s6.055-6.176,13.914-4.22c10.96,2.728,13.838,17.433,5.646,24.737-5.755,5.127-16.477,1.783-16.477,1.783-.837.365-8.237,8.258-17.223,2.2,0,0-4.1,6.418-9.985,4.394C541.727,327.6,540.631,333.246,534.8,333.983Z" transform="translate(-528.352 -294.101)" fill="#263238"/>
                    </g>
                  </g>
                  <g id="Group_13041" data-name="Group 13041" transform="translate(2.719 52.125)">
                    <path id="Path_19983" data-name="Path 19983" d="M544.377,325.342s-9.16-9.326-13.512-5.886,3.775,17.821,9.754,18.97a5.8,5.8,0,0,0,7.151-4.364Z" transform="translate(-529.634 -318.695)" fill="#eb9481"/>
                    <path id="Path_19984" data-name="Path 19984" d="M531.4,320.982a.078.078,0,0,0,0,.155c4.216.937,6.907,4.245,9,7.8-1.42-1.263-3.152-1.8-4.875-.07-.089.091.036.235.144.193a3.567,3.567,0,0,1,4.08.579,17.165,17.165,0,0,1,2.382,2.821c.244.322.848.028.646-.356l-.049-.087C541.979,326.965,536.885,320.579,531.4,320.982Z" transform="translate(-527.736 -316.155)" fill="#263238"/>
                  </g>
                </g>
              </g>
              <g id="Group_13044" data-name="Group 13044" transform="translate(14.64 89.871)">
                <path id="Path_19985" data-name="Path 19985" d="M573.272,340.269,566.248,359.7,541.671,336.5l-6.411,7.986s24.6,37.4,24.682,35.665l7.225-16.712,11.763,10.988-2.011-28.635Z" transform="translate(-535.259 -336.503)" fill="#ebebeb"/>
                <path id="Path_19986" data-name="Path 19986" d="M578.19,355.259c-.49-4.716-.852-9.481-1.56-14.169-.025-.167-.29-.231-.324-.032-.774,4.6,1.2,22.628,1.344,26.962l-.053-.047c-.492-.477-10.882-9.65-10.975-9.493-1.6,2.671-6.91,14.843-7.261,15.945-3.891-5.941-18.762-27.513-23.312-33.1a.164.164,0,0,0-.278.174c3.478,6.3,23.175,35.358,23.457,35.264.2.142,6.8-14.853,7.547-17.666,1.776,2.018,12.308,12.414,12.314,11.71A148.362,148.362,0,0,0,578.19,355.259Z" transform="translate(-534.714 -331.542)" fill="#263238"/>
              </g>
            </g>
          </g>
        </g>
      </g>
    </g>
    <g id="Character_3" data-name="Character 3" transform="translate(364.25 379.34)">
      <rect id="Rectangle_2375" data-name="Rectangle 2375" width="250.049" height="258.169" transform="translate(37.632 3.522)" fill="#6300df"/>
      <g id="Group_13083" data-name="Group 13083" transform="translate(0)">
        <g id="Group_13054" data-name="Group 13054" transform="translate(193.171 69.132)">
          <g id="Group_13050" data-name="Group 13050" transform="translate(8.029 6.607)">
            <path id="Path_19988" data-name="Path 19988" d="M440,269.755c6.577-1.558,23.622,2.9,29.438,11.613s5.555,22.978,2.652,24.415-15.487.555-24.184-4.072S436.763,270.522,440,269.755Z" transform="translate(-438.632 -269.354)" fill="#263238"/>
            <path id="Path_19989" data-name="Path 19989" d="M439.365,269.845c-.22-.044-.252-.411,0-.422,5.773-.233,11.99,1.619,17.518,3.122,4.462,1.212,9.046,2.662,12.681,5.632a15.5,15.5,0,0,1,5.816,11.608c.263,5.091-.369,11.259-2.8,15.812-.07.133-.326.1-.28-.076,2.512-9.665,4.661-21.454-5-27.865C459.093,272.213,448.695,271.721,439.365,269.845Z" transform="translate(-438.01 -269.404)" fill="#263238"/>
          </g>
          <g id="Group_13051" data-name="Group 13051" transform="translate(31.51 40.543)">
            <path id="Path_19990" data-name="Path 19990" d="M457.43,285.416c5.786.655,20.951,11.409,23.633,22.348s-5.973,27.295-8.783,28.514-15.727-9.107-20-16.767c-2.857-5.121-.755-11.176.413-17.183C454.416,293.461,456.529,285.314,457.43,285.416Z" transform="translate(-448.442 -285.415)" fill="#263238"/>
            <path id="Path_19991" data-name="Path 19991" d="M450.061,318.066c-1.886-11.157,4.281-22.329,7.938-32.488.038-.108.218-.061.2.051-1.963,9.724-7.664,18.518-7.668,28.658,0,6.017,2.181,11.888,7.2,15.5,4.345,3.131,9.765,4.508,14.771,6.2.331.112.123.6-.206.5C462.3,333.39,452.009,329.584,450.061,318.066Z" transform="translate(-449.711 -285.3)" fill="#263238"/>
            <path id="Path_19992" data-name="Path 19992" d="M454.623,286.152c-.29-.138-.1-.6.191-.464,8.268,3.758,18.236,9.277,22.757,17.524,4.9,8.934.269,18.435-3.838,26.627-.051.1-.216.036-.165-.068,4.05-8.315,8.3-18.622,2.76-27.314C471.558,294.982,462.423,289.831,454.623,286.152Z" transform="translate(-444.374 -285.136)" fill="#263238"/>
          </g>
          <g id="Group_13052" data-name="Group 13052" transform="translate(13.699 91.124)">
            <path id="Path_19993" data-name="Path 19993" d="M481.517,309.279c-3.633,2.368-8.561,9.5-9.059,17.329-.854,13.4-6.083,11.31-20.12,16.271-11.863,4.192-13.067,18.069-5.9,24.135,0,0-4.614-8.012,3.169-12.954,9.3-5.907,32.74,2.115,42.509-12.859C504.755,321.829,481.517,309.279,481.517,309.279Z" transform="translate(-440.531 -309.279)" fill="#263238"/>
            <path id="Path_19994" data-name="Path 19994" d="M477.741,312.57c.14-.195-.193-.443-.343-.254a19.437,19.437,0,0,0-3.378,6.134c-.95,2.914-.7,5.937-1.443,8.881-1.886,7.495-10.636,8.128-16.916,9.218-8.421,1.462-14.718,7.336-14.336,16.318a.1.1,0,0,0,.2-.006,15.179,15.179,0,0,1,7.7-13.72c4.746-2.6,10.449-2.056,15.468-3.822,3.436-1.206,6.787-3.056,8.073-6.653a30.055,30.055,0,0,0,.966-6.2A21.132,21.132,0,0,1,477.741,312.57Z" transform="translate(-441.307 -305.955)" fill="#263238"/>
            <path id="Path_19995" data-name="Path 19995" d="M477.74,309.932c-.085-.053-.186.081-.106.144,5.284,4.256,10.856,8.5,12.942,15.3,2.245,7.312-.848,15.178-6.255,20.279-6.055,5.714-13.342,4.016-20.824,3.33-5.413-.5-10.888-.576-15.915,1.766-.153.072-.038.324.121.271,8.192-2.8,16.123-1.077,24.5-.581,6.844.4,11.9-2.471,15.7-8.137C496.292,329.8,489.1,317.223,477.74,309.932Z" transform="translate(-434.363 -308.562)" fill="#263238"/>
          </g>
          <g id="Group_13053" data-name="Group 13053">
            <path id="Path_19996" data-name="Path 19996" d="M441.88,267.17c1.8-2.355,5.419.483,3.62,2.842S440.079,269.531,441.88,267.17Z" transform="translate(-427.514 -266.286)" fill="#ffc727"/>
            <path id="Path_19997" data-name="Path 19997" d="M441.066,269.02c1.8-2.357,5.422.481,3.622,2.842S439.266,271.382,441.066,269.02Z" transform="translate(-428.425 -264.216)" fill="#ffc727"/>
            <path id="Path_19998" data-name="Path 19998" d="M439.936,270.718c1.8-2.357,5.42.481,3.62,2.84S438.137,273.077,439.936,270.718Z" transform="translate(-429.69 -262.315)" fill="#ffc727"/>
            <path id="Path_19999" data-name="Path 19999" d="M438.628,272.21c1.8-2.357,5.42.481,3.62,2.84S436.828,274.569,438.628,272.21Z" transform="translate(-431.154 -260.644)" fill="#ffc727"/>
            <path id="Path_20000" data-name="Path 20000" d="M437.048,273.483c1.8-2.357,5.422.481,3.622,2.84S435.248,275.842,437.048,273.483Z" transform="translate(-432.923 -259.219)" fill="#ffc727"/>
            <path id="Path_20001" data-name="Path 20001" d="M435.332,274.416c1.8-2.357,5.422.481,3.622,2.842S433.532,276.778,435.332,274.416Z" transform="translate(-434.844 -258.175)" fill="#ffc727"/>
          </g>
        </g>
        <g id="Group_13082" data-name="Group 13082">
          <g id="Group_13060" data-name="Group 13060">
            <path id="Path_20002" data-name="Path 20002" d="M525.408,328.254c-9.951,12.236-63.153,50.819-108.063,50.1-15.254-.246-57.65-65.366-65.486-90.132-5.623-17.781,32.138-26.761,42.806-24.19,13.311,3.209,39.27,59.066,44.4,59.422,15.246,1.062,41.443-8.128,73.6-11.384C529.175,310.4,533.072,318.83,525.408,328.254Z" transform="translate(-335.21 -200.161)" fill="#ad6359"/>
            <g id="Group_13058" data-name="Group 13058">
              <g id="Group_13056" data-name="Group 13056">
                <path id="Path_20003" data-name="Path 20003" d="M361.815,325.819c-2.832-6.18-16.165-40.574-17.246-49.427s-2.344-34.561,4.353-36.076,7.668,5.979,7.668,5.979,1.185-10.939,8.065-11.85,8.007,10.8,8.007,10.8,2.037-11.146,8.963-11.564,6.089,11.545,6.089,11.545,1.386-10.275,7.24-8.219c7.039,2.473,2.344,21.131,4.269,30.815.439,2.2,12.043,43.948,12.043,43.948Z" transform="translate(-343.704 -233.669)" fill="#ad6359"/>
                <g id="Group_13055" data-name="Group 13055" transform="translate(11.068 9.929)">
                  <path id="Path_20004" data-name="Path 20004" d="M366.575,238.954c-3.423,13.728-2.543,20.326,1.823,33.552.085.259-.28.445-.394.182-5.453-12.562-7.749-20.68-2.086-33.935C366.2,238.1,366.737,238.3,366.575,238.954Z" transform="translate(-333.579 -238.354)" fill="#263238"/>
                  <path id="Path_20005" data-name="Path 20005" d="M359.1,238.877c-2.308,14.569-1.418,21.735,2.136,35.926.049.2-.284.305-.352.108-4.652-13.628-6.755-21.78-2.537-36.034C358.543,238.232,359.21,238.211,359.1,238.877Z" transform="translate(-340.923 -238.318)" fill="#263238"/>
                  <path id="Path_20006" data-name="Path 20006" d="M350.948,240.312c-1.217,14.266-.581,22.164,4.638,35.5a.264.264,0,0,1-.479.22c-6.643-13.077-7.509-22.927-4.6-35.709C350.709,239.449,351.024,239.415,350.948,240.312Z" transform="translate(-348.926 -236.899)" fill="#263238"/>
                </g>
              </g>
              <g id="Group_13057" data-name="Group 13057" transform="translate(38.204 25.197)">
                <path id="Path_20007" data-name="Path 20007" d="M400.061,304.937s1.969-17.619,1.128-25.551-14.862-36.33-21.167-33.651c-8.141,3.461-3.279,21.449.254,29.949,0,0-18.84,7.984-18.145,21.651S400.061,304.937,400.061,304.937Z" transform="translate(-361.301 -245.557)" fill="#ad6359"/>
                <path id="Path_20008" data-name="Path 20008" d="M378.524,246.474c-5.15,8.51.208,19.368,3.018,27.869a.819.819,0,0,1-.757,1.113c-7.673,3.872-17.371,11.573-18.643,20.555a.207.207,0,0,1-.413-.023c.057-9.82,8.966-18.162,17.643-21.867-3.02-8.673-7.914-19.8-.928-27.7A.048.048,0,0,1,378.524,246.474Z" transform="translate(-361.729 -244.612)" fill="#263238"/>
              </g>
            </g>
            <g id="Group_13059" data-name="Group 13059" transform="translate(126.583 110.239)">
              <path id="Path_20009" data-name="Path 20009" d="M403.427,294.414l18.529,42.892s28.024-13.325,45.057-30.57-1.895-23-18.4-20.5S403.427,294.414,403.427,294.414Z" transform="translate(-403.427 -285.68)" fill="#ebebeb"/>
              <path id="Path_20010" data-name="Path 20010" d="M460.209,303.647c-17.041,17.232-45.061,30.563-45.061,30.563l-5.638-13.035,56.442-32.725C468.03,291.884,466.885,296.886,460.209,303.647Z" transform="translate(-396.617 -282.58)" fill="#c7c7c7"/>
              <path id="Path_20011" data-name="Path 20011" d="M423.934,326.735c-9.143-17.2-14.546-33.507-16.008-36.814-.07-.157.191-.25.252-.089,1.265,3.319,10.076,21.532,16.034,36.805C424.279,326.814,424.023,326.9,423.934,326.735Z" transform="translate(-398.405 -281.126)" fill="#263238"/>
            </g>
          </g>
          <g id="Group_13063" data-name="Group 13063" transform="translate(140.121 106.613)">
            <path id="Path_20012" data-name="Path 20012" d="M417.415,381.012l-7.6,58.034,121.454.009s-16.066-108.828-42-142.246c-12.974-16.712-30.358-16.276-42.645-3.5-2.679,2.785-29.824,41.547-34.6,57.551C407.841,364.986,417.415,381.012,417.415,381.012Z" transform="translate(-409.814 -283.97)" fill="#ebebeb"/>
            <g id="Group_13062" data-name="Group 13062" transform="translate(17.695 15.142)">
              <path id="Path_20013" data-name="Path 20013" d="M441.163,291.114,433.5,311.686q-3.809,10.288-7.291,20.667c-2.162,6.95-4.771,13.891-3.732,20.992a53.423,53.423,0,0,0,6.888,20.218l.167.295-.034.295c-1.051,9.224-2.293,18.427-3.432,27.641q-1.749,13.814-3.718,27.607,1.164-13.884,2.516-27.742c.941-9.237,1.776-18.484,2.8-27.71l.131.589a55.238,55.238,0,0,1-7.41-20.97,30.052,30.052,0,0,1,.8-11.238c.93-3.595,2.054-7.1,3.245-10.572,2.344-6.963,5.123-13.747,7.9-20.527S438.075,297.754,441.163,291.114Z" transform="translate(-415.904 -291.114)" fill="#263238"/>
              <g id="Group_13061" data-name="Group 13061" transform="translate(0 25.305)">
                <path id="Path_20014" data-name="Path 20014" d="M422.1,304.55a1.808,1.808,0,0,0,1.335,2.094,1.656,1.656,0,0,0,1.893-1.469,1.808,1.808,0,0,0-1.335-2.094A1.655,1.655,0,0,0,422.1,304.55Z" transform="translate(-413.785 -303.053)" fill="#263238"/>
                <path id="Path_20015" data-name="Path 20015" d="M418.625,314.006a1.809,1.809,0,0,0,1.335,2.094,1.653,1.653,0,0,0,1.891-1.469,1.8,1.8,0,0,0-1.335-2.094A1.653,1.653,0,0,0,418.625,314.006Z" transform="translate(-417.672 -292.467)" fill="#263238"/>
                <path id="Path_20016" data-name="Path 20016" d="M418.187,323.646a1.806,1.806,0,0,0,1.335,2.094,1.654,1.654,0,0,0,1.891-1.469,1.8,1.8,0,0,0-1.335-2.094A1.652,1.652,0,0,0,418.187,323.646Z" transform="translate(-418.163 -281.675)" fill="#263238"/>
                <path id="Path_20017" data-name="Path 20017" d="M420.866,331.625a1.81,1.81,0,0,0,1.335,2.1,1.657,1.657,0,0,0,1.893-1.471,1.809,1.809,0,0,0-1.335-2.094A1.656,1.656,0,0,0,420.866,331.625Z" transform="translate(-415.163 -272.741)" fill="#263238"/>
                <path id="Path_20018" data-name="Path 20018" d="M419.824,340.339a1.809,1.809,0,0,0,1.335,2.094,1.656,1.656,0,0,0,1.893-1.471,1.809,1.809,0,0,0-1.335-2.094A1.656,1.656,0,0,0,419.824,340.339Z" transform="translate(-416.33 -262.988)" fill="#263238"/>
                <path id="Path_20019" data-name="Path 20019" d="M418.876,348.939a1.807,1.807,0,0,0,1.335,2.1,1.656,1.656,0,0,0,1.891-1.471,1.809,1.809,0,0,0-1.335-2.094A1.653,1.653,0,0,0,418.876,348.939Z" transform="translate(-417.391 -253.358)" fill="#263238"/>
              </g>
            </g>
          </g>
          <g id="Group_13067" data-name="Group 13067" transform="translate(182.196 112.641)">
            <path id="Path_20020" data-name="Path 20020" d="M431.106,413.82c6.11,4.156,16.413-14.158,19.919-18.084s5.008-3.807,4.809-.8L463.8,363.3c-4.122,3.207-12.889,10.1-17.547,14.627C440.005,383.984,424.978,409.661,431.106,413.82Z" transform="translate(-429.666 -201.193)" fill="#ad6359"/>
            <path id="Path_20021" data-name="Path 20021" d="M465.206,297.56c25.949,20.915,58.647,57.716,65.312,81.5,5.144,18.357-20.669,82.129-28.365,97.012-3.353,6.486-47.78-13.26-49.736-20.818s29.014-62.487,29.328-68.316-19.945-44.323-33.757-70.355C431.26,285.057,443.144,279.777,465.206,297.56Z" transform="translate(-417.972 -286.1)" fill="#ad6359"/>
            <g id="Group_13065" data-name="Group 13065" transform="translate(4.805 160.366)">
              <path id="Path_20022" data-name="Path 20022" d="M432.925,432.886c4.091,4.457,12.372-.935,12.372-.935s-7.363,9.1-1.6,12.638c5.778,3.54,13.624-4.241,13.624-4.241s-6.312,8.732-.316,11.837c6.009,3.124,13.758-3.673,13.758-3.673s-.418,3.357,4.807,3.641c7.5.435,18.2-11.738,22.291-19.4,4.091-7.681,13.391-38.821,14.726-43.611l-49.054-26.666s-.869.651-2.272,1.736l-7.963,31.64c-.134,1.971-5.744,14.11-7.781,17.6C440.905,421.333,428.334,427.895,432.925,432.886Z" transform="translate(-431.933 -362.476)" fill="#ad6359"/>
              <g id="Group_13064" data-name="Group 13064" transform="translate(13.345 42.286)">
                <path id="Path_20023" data-name="Path 20023" d="M438.5,409.171c11-8.334,14.368-13.881,19.146-26.6.093-.248.483-.165.409.1-3.544,12.876-6.768,20.445-19.177,27.045C438.269,410.046,437.977,409.565,438.5,409.171Z" transform="translate(-438.229 -382.427)" fill="#263238"/>
                <path id="Path_20024" data-name="Path 20024" d="M443.756,414.48c10.665-9.65,14.375-15.636,20.356-28.584.085-.184.4-.059.335.131-4.807,13.194-8.2,20.672-20.12,28.914C443.788,415.316,443.268,414.921,443.756,414.48Z" transform="translate(-432.259 -378.644)" fill="#263238"/>
                <path id="Path_20025" data-name="Path 20025" d="M450.447,418.813c9.652-10.091,14-16.477,18.194-29.794a.257.257,0,0,1,.5.125c-2.955,14-8.323,22-18.355,29.93C450.1,419.614,449.839,419.446,450.447,418.813Z" transform="translate(-424.933 -375.255)" fill="#263238"/>
              </g>
            </g>
            <g id="Group_13066" data-name="Group 13066" transform="translate(20.637)">
              <path id="Path_20026" data-name="Path 20026" d="M461.129,355.526l37.441-27.952s-19.449-24.179-40.165-36.761-21.941,7.168-15.685,22.645S461.129,355.526,461.129,355.526Z" transform="translate(-439.402 -286.814)" fill="#ebebeb"/>
              <path id="Path_20027" data-name="Path 20027" d="M480.859,303.633c-14.62,12.878-29.232,21.907-32.11,24.094-.136.1-.288-.127-.144-.225,2.935-2,18.613-14.786,32.1-24.116C480.855,303.279,481,303.51,480.859,303.633Z" transform="translate(-429.165 -268.292)" fill="#263238"/>
              <path id="Path_20028" data-name="Path 20028" d="M450.825,321.032c-2.287-5.117-5.4-12.562-7.98-17.539-.036-.066-.144-.017-.119.051,1.013,2.91,2.166,5.795,3.37,8.658-.1-.144-.184-.3-.284-.441-.939-1.342-1.9-2.649-2.938-3.917-.036-.045-.1.015-.074.059.791,1.454,1.636,2.872,2.554,4.247.572.856,1.183,1.687,1.791,2.518.651,1.509,2.168,5.246,2.821,6.74,1.1,2.512,6.494,16.712,6.727,16.562a45.891,45.891,0,0,0,3.762-2.825c.182-.157-.1-.487-.28-.337-.668.56-2.359,1.693-2.639,1.907-1.223-2.569-2.223-5.282-3.338-7.9S451.978,323.614,450.825,321.032Z" transform="translate(-435.685 -268.176)" fill="#263238"/>
            </g>
          </g>
          <g id="Group_13081" data-name="Group 13081" transform="translate(150.135 19.082)">
            <g id="Group_13068" data-name="Group 13068" transform="translate(24.745 54.696)">
              <path id="Path_20029" data-name="Path 20029" d="M453.543,306.106c-.627,2.158-11.8,15.769-21.746,14.771-3.241-.331-2.225-18.1-2.225-18.1l-.225-1.329-3.133-18.6,22.327-12.706,3.217-1.668s.523,5.144,1.108,11.558c.028.3.057.6.083.913.042.362.089.7.112,1.043.1.956.2,1.935.273,2.91.064.742.127,1.465.163,2.247.055.782.1,1.545.15,2.327C454.041,297.212,453.8,305.19,453.543,306.106Z" transform="translate(-426.214 -268.478)" fill="#ad6359"/>
              <path id="Path_20030" data-name="Path 20030" d="M452.867,280.036a37.84,37.84,0,0,1-23.52,21.415l-3.133-18.6,22.327-12.706,3.217-1.668S452.282,273.622,452.867,280.036Z" transform="translate(-426.214 -268.478)" fill="#263238"/>
            </g>
            <g id="Group_13078" data-name="Group 13078">
              <path id="Path_20031" data-name="Path 20031" d="M415.978,278.179c-6.727,32.411,11.929,40.1,18.919,41.542,6.346,1.31,28.122,4.962,38.162-26.581s-2.906-44.919-17.261-48.681S422.7,245.766,415.978,278.179Z" transform="translate(-414.539 -241.864)" fill="#ad6359"/>
              <g id="Group_13074" data-name="Group 13074" transform="translate(8.232 25.478)">
                <path id="Path_20032" data-name="Path 20032" d="M421.011,257.9a21.615,21.615,0,0,0,2.285-.093,3.684,3.684,0,0,0,2.312-.538,1.175,1.175,0,0,0,.237-1.418,2.922,2.922,0,0,0-2.724-1.153,4.286,4.286,0,0,0-2.908,1.049A1.255,1.255,0,0,0,421.011,257.9Z" transform="translate(-416.867 -254.693)" fill="#263238"/>
                <path id="Path_20033" data-name="Path 20033" d="M433.153,260.668a21.613,21.613,0,0,1-2.128-.837,3.7,3.7,0,0,1-2.007-1.27,1.179,1.179,0,0,1,.242-1.416,2.922,2.922,0,0,1,2.952-.193,4.289,4.289,0,0,1,2.4,1.944A1.255,1.255,0,0,1,433.153,260.668Z" transform="translate(-406.72 -252.503)" fill="#263238"/>
                <g id="Group_13070" data-name="Group 13070" transform="translate(20.091 13.239)">
                  <g id="Group_13069" data-name="Group 13069">
                    <path id="Path_20034" data-name="Path 20034" d="M428.5,261.865c.034-.08.153.138.131.229-.5,2.2-.7,4.8,1.164,5.924.059.034.03.144-.042.119C427.38,267.323,427.679,263.87,428.5,261.865Z" transform="translate(-427.902 -259.922)" fill="#263238"/>
                    <path id="Path_20035" data-name="Path 20035" d="M430.83,260.952c3.612.417,2.512,7.611-.835,7.225C426.7,267.8,427.8,260.6,430.83,260.952Z" transform="translate(-427.806 -260.939)" fill="#263238"/>
                  </g>
                  <path id="Path_20036" data-name="Path 20036" d="M430.225,261.259c.566.5,1.07,1.314,1.817,1.5.862.22,1.64-.43,2.325-1.068.07-.066.123.006.108.1-.189,1.382-.935,2.715-2.444,2.7-1.378-.019-2.158-1.388-2.291-2.825C429.717,261.4,430,261.056,430.225,261.259Z" transform="translate(-425.847 -260.65)" fill="#263238"/>
                </g>
                <g id="Group_13072" data-name="Group 13072" transform="translate(0 8.569)">
                  <g id="Group_13071" data-name="Group 13071" transform="translate(1.95 0.817)">
                    <path id="Path_20037" data-name="Path 20037" d="M423.5,260.4c-.006-.089-.191.081-.2.172-.252,2.24-.918,4.765-3.044,5.212-.066.015-.076.127,0,.129C422.772,265.921,423.622,262.561,423.5,260.4Z" transform="translate(-418.379 -257.719)" fill="#263238"/>
                    <path id="Path_20038" data-name="Path 20038" d="M422.813,259.182c-3.548-.79-4.873,6.363-1.585,7.1C424.464,267,425.786,259.848,422.813,259.182Z" transform="translate(-419.343 -259.121)" fill="#263238"/>
                  </g>
                  <path id="Path_20039" data-name="Path 20039" d="M422.264,259.809c-.636.276-1.323.861-2.005.78-.793-.093-1.229-.975-1.592-1.808-.038-.087-.1-.038-.125.057-.29,1.359-.1,2.868,1.164,3.374,1.155.46,2.251-.551,2.83-1.852C422.643,260.12,422.52,259.7,422.264,259.809Z" transform="translate(-418.423 -258.736)" fill="#263238"/>
                </g>
                <path id="Path_20040" data-name="Path 20040" d="M428.173,269.877c-.593.468-1.206,1.134-2.026,1.115a5.964,5.964,0,0,1-2.348-.82.079.079,0,0,0-.11.1,3.033,3.033,0,0,0,2.715,1.52A2.394,2.394,0,0,0,428.377,270C428.425,269.875,428.26,269.81,428.173,269.877Z" transform="translate(-412.539 -237.724)" fill="#263238"/>
                <g id="Group_13073" data-name="Group 13073" transform="translate(3.831 1.067)">
                  <path id="Path_20041" data-name="Path 20041" d="M424.062,276.711s-1.007,3.245-1.267,4.813c-.021.146.345.278.871.4.025.013.038.025.061.013a7.543,7.543,0,0,0,7.692-1.59c.134-.136-.038-.329-.2-.254a11.378,11.378,0,0,1-7.121.827c-.04-.451,1.91-5.5,1.664-5.562a13.841,13.841,0,0,0-3.69.22c1.9-6.823,4.879-13.285,6.67-20.106a.217.217,0,0,0-.392-.17c-3.6,6.551-5.962,14.355-8.1,21.35C419.971,277.518,423.39,276.874,424.062,276.711Z" transform="translate(-420.231 -255.196)" fill="#263238"/>
                </g>
              </g>
              <g id="Group_13075" data-name="Group 13075" transform="translate(5.983)">
                <path id="Path_20042" data-name="Path 20042" d="M437.491,249.368s-1.768,4.8-.4,8.525c2.8,7.649,11.8,6.566,14.538,9.748,2.567,2.982,1.045,8.506,3.345,11.464,3.183,4.095,8.141,3.1,8.484,5.685s1.255,10.8,4.381,12.13,23.033-50.809-19.273-53.149c0,0-5.559-2.912-14.962.748-10.377,4.04-16.238,19.911-16.238,19.911s.233-.2,1.8-1.333c2.206-1.6,3.15-3.183,4.75-4.2,2.516-1.6,3.737-.789,6.339-2.334C434.214,254.207,437.491,249.368,437.491,249.368Z" transform="translate(-417.362 -242.672)" fill="#263238"/>
                <path id="Path_20043" data-name="Path 20043" d="M428.742,244.76a28.413,28.413,0,0,0-1.846,6.327,11.867,11.867,0,0,0,.3,6.35,8.769,8.769,0,0,0,4.479,4.222c1.935.931,4.125,1.35,6.2,2.418a6.617,6.617,0,0,1,2.624,2.393,8.836,8.836,0,0,1,.93,3.355c.24,2.2.492,4.377,1.778,6.055a7.33,7.33,0,0,0,5.424,2.912c2.124.206,4.527-.165,6.511.964-2.071-.966-4.309-.413-6.541-.456a7.955,7.955,0,0,1-6.024-2.925c-1.566-1.825-1.812-4.3-2.092-6.424a7.938,7.938,0,0,0-.852-2.984A5.626,5.626,0,0,0,437.379,265c-1.853-1-4.067-1.471-6.117-2.48a11.456,11.456,0,0,1-2.846-1.931,6.914,6.914,0,0,1-1.973-2.863,12.442,12.442,0,0,1-.051-6.738A28.7,28.7,0,0,1,428.742,244.76Z" transform="translate(-407.748 -240.334)" fill="#263238"/>
                <path id="Path_20044" data-name="Path 20044" d="M436.1,245.629a23.017,23.017,0,0,1-2.6,5.615,10.843,10.843,0,0,1-4.669,4.239,15.8,15.8,0,0,1-3.022.854,5.034,5.034,0,0,0-2.423,1.308,15.584,15.584,0,0,1-2.069,2.312,6.876,6.876,0,0,1-2.825,1.3,7.626,7.626,0,0,0,2.48-1.685,15.563,15.563,0,0,0,1.789-2.44,5.33,5.33,0,0,1,2.787-1.744,16.773,16.773,0,0,0,2.857-.854,11.531,11.531,0,0,0,4.406-3.779A45.344,45.344,0,0,0,436.1,245.629Z" transform="translate(-416.095 -239.361)" fill="#263238"/>
              </g>
              <g id="Group_13077" data-name="Group 13077" transform="translate(46.697 43.03)">
                <g id="Group_13076" data-name="Group 13076">
                  <path id="Path_20045" data-name="Path 20045" d="M439.712,269.553s8.694-9.131,12.944-5.88-3.372,17.242-9.122,18.442a5.6,5.6,0,0,1-6.963-4.1Z" transform="translate(-436.571 -262.974)" fill="#ad6359"/>
                  <path id="Path_20046" data-name="Path 20046" d="M448.806,265.176a.077.077,0,0,1,.008.15c-4.052.967-6.6,4.2-8.563,7.654,1.35-1.24,3.012-1.778,4.7-.14.089.085-.03.227-.133.189a3.443,3.443,0,0,0-3.927.619,16.55,16.55,0,0,0-2.255,2.757c-.229.314-.818.038-.627-.335l.045-.083C438.694,271.106,443.509,264.873,448.806,265.176Z" transform="translate(-435.006 -260.521)" fill="#263238"/>
                </g>
              </g>
            </g>
            <g id="Group_13080" data-name="Group 13080" transform="translate(21.725 88.519)">
              <g id="Group_13079" data-name="Group 13079">
                <path id="Path_20047" data-name="Path 20047" d="M430.611,286.367l4.686,15.091,19.658-17.022,4.665,6.35s-20.142,27.941-20.146,26.606l-5-13.086-9.4,8.061,2.486-21.948Z" transform="translate(-424.479 -284.436)" fill="#ebebeb"/>
                <path id="Path_20048" data-name="Path 20048" d="M425.991,298.249c.532-3.61.967-7.259,1.666-10.841.025-.127.231-.167.25-.015.443,3.563-1.664,17.357-1.918,20.684l.04-.034c.394-.35,8.684-7.06,8.752-6.937,1.144,2.1,4.822,11.636,5.057,12.5,3.186-4.44,15.328-20.534,19.01-24.677a.126.126,0,0,1,.208.144c-2.88,4.727-18.978,26.42-19.192,26.337a142.114,142.114,0,0,1-5.22-13.828c-1.433,1.492-9.871,9.137-9.854,8.6A114.76,114.76,0,0,1,425.991,298.249Z" transform="translate(-424.789 -281.236)" fill="#263238"/>
              </g>
            </g>
          </g>
        </g>
      </g>
    </g>
    <g id="Character_2" data-name="Character 2" transform="translate(668.82 213.383)">
      <rect id="Rectangle_2376" data-name="Rectangle 2376" width="274.241" height="274.241" transform="translate(0 0)" fill="#dbdbdb"/>
      <g id="Group_13124" data-name="Group 13124" transform="translate(44.803 19.882)">
        <g id="Group_13123" data-name="Group 13123" transform="translate(0)">
          <g id="Group_13085" data-name="Group 13085" transform="translate(41.233 3.103)">
            <path id="Path_20050" data-name="Path 20050" d="M530.437,306.18c1.187.076,6.734.458,14.841,1.032,3.078-5.042,6.831-14.044,5.988-27.066-.153-2.158,4.358,10.4,1.549,27.6,15.669,1.094,36.983,2.569,55.612,3.682.693-7.261,1.666-13.961,1.666-13.961a80.558,80.558,0,0,0,2.387,14.22c2.546.172,5.044.292,7.437.43-.03-11.325,2.8-30.924,2.8-30.924a99.486,99.486,0,0,0,7.8,31.5c11.833.583,19.629.75,19.154.167-16.967-21.348-3.315-32.57-7.579-50.883-5.119-21.943-23.639-26.237-22.342-42.483,1.024-13.219,3.771-37.163-12.719-43.062,0,0-12.923-15.521-34.66-8.294-26.892,8.915-18.3,50.22-20.481,58.441-3.107,11.746-8.946,15.667-13.781,29-4.928,13.495.892,22.869,1.176,32.187C539.523,297.07,527.467,306.017,530.437,306.18Z" transform="translate(-525.789 -166.214)" fill="#263238"/>
            <path id="Path_20051" data-name="Path 20051" d="M603.737,283.313a46.305,46.305,0,0,1-5.218-11.852c-1.168-4.1-.392-8.2.619-12.431a129.455,129.455,0,0,0,2.777-12.98,34.578,34.578,0,0,0-.685-13.69,30.3,30.3,0,0,0-6.59-12.071,80.565,80.565,0,0,0-9.769-9.1c-3.3-2.827-6.6-5.621-9.006-9.135a23.791,23.791,0,0,1-4.2-12.052,22.249,22.249,0,0,0,2.847,12.9,44.72,44.72,0,0,0,8.626,10.224,101.312,101.312,0,0,1,9.048,9.211,28.894,28.894,0,0,1,5.7,10.92,33.875,33.875,0,0,1,.676,12.391c-.437,4.226-1.42,8.448-2.192,12.817a43.912,43.912,0,0,0-.735,6.723,19.448,19.448,0,0,0,1.189,6.8A37.554,37.554,0,0,0,603.737,283.313Z" transform="translate(-479.199 -139.581)" fill="#263238"/>
            <path id="Path_20052" data-name="Path 20052" d="M558.929,173.96c-2.287,4.924-3.3,10.33-4.318,15.631-.918,5.341-1.575,10.712-2.17,16.064l-.943,7.991a40,40,0,0,1-1.56,7.6c-1.537,4.9-4.508,9.093-7.842,13.347a61.583,61.583,0,0,0-4.642,6.874,37.715,37.715,0,0,0-3.3,7.772,55.905,55.905,0,0,0-1.541,8.207,34.461,34.461,0,0,0,.076,8.383c.354,2.781,1.013,5.428,1.547,8.014a41.149,41.149,0,0,1,.882,7.825c.159,5.167-2.8,10.186-7.122,13.366a16.8,16.8,0,0,0,8.8-13.3,40.564,40.564,0,0,0-.314-8.262c-.346-2.724-.905-5.339-1.081-7.925a42.9,42.9,0,0,1,1.933-15.352,37.22,37.22,0,0,1,3.1-7.024,58.092,58.092,0,0,1,4.468-6.46,81.366,81.366,0,0,0,4.727-6.757,33.643,33.643,0,0,0,3.489-7.721,43.391,43.391,0,0,0,1.441-8.245c.276-2.711.447-5.4.613-8.094.363-5.375.644-10.74,1.147-16.081A78.269,78.269,0,0,1,558.929,173.96Z" transform="translate(-527.995 -157.542)" fill="#263238"/>
          </g>
          <g id="Group_13087" data-name="Group 13087" transform="translate(148.482 245.886)">
            <g id="Group_13086" data-name="Group 13086">
              <path id="Path_20053" data-name="Path 20053" d="M603.728,281.715c-.047-.322-.108-.63-.169-.954.076.4.153.786.2,1.185C603.743,281.87,603.743,281.793,603.728,281.715Z" transform="translate(-550.65 -280.761)" fill="#ffc727"/>
              <path id="Path_20054" data-name="Path 20054" d="M578.6,285.642a4.705,4.705,0,0,0,.555.293l.076-.138.015-.017c-.184-.047-.384-.076-.568-.123A.148.148,0,0,1,578.6,285.642Z" transform="translate(-578.596 -275.297)" fill="#ffc727"/>
            </g>
          </g>
          <g id="Group_13119" data-name="Group 13119">
            <g id="Group_13105" data-name="Group 13105" transform="translate(0 92.63)">
              <g id="Group_13090" data-name="Group 13090" transform="translate(6.756 3.001)">
                <g id="Group_13088" data-name="Group 13088">
                  <path id="Path_20055" data-name="Path 20055" d="M577.63,222.1c-33.312,37.481-73.653,114.771-64.613,129.544,10.068,16.456,58.132-36.918,56.478-39.334-1.405-2.054,14.22-48.289,25.566-82.1C606.393,196.433,585.868,212.83,577.63,222.1Z" transform="translate(-511.728 -209.869)" fill="#d3766a"/>
                </g>
                <g id="Group_13089" data-name="Group 13089">
                  <path id="Path_20056" data-name="Path 20056" d="M577.63,222.1c-33.312,37.481-73.653,114.771-64.613,129.544,10.068,16.456,58.132-36.918,56.478-39.334-1.405-2.054,14.22-48.289,25.566-82.1C606.393,196.433,585.868,212.83,577.63,222.1Z" transform="translate(-511.728 -209.869)" fill="#455a64"/>
                </g>
                <path id="Path_20057" data-name="Path 20057" d="M568.362,245.084c-3.247,9.862-6.231,19.114-8.5,26.5-5.15.231-20.207-.6-35.856-15.636,4.7-8.342,9.8-16.719,15.046-24.724A46.755,46.755,0,0,0,568.362,245.084Z" transform="translate(-497.978 -185.956)" fill="#ebebeb"/>
              </g>
              <g id="Group_13091" data-name="Group 13091" transform="translate(40.241)">
                <path id="Path_20058" data-name="Path 20058" d="M527.657,370.317l8.366-56.69s-13.41-23.416-5.629-40.22c3.927-8.512,30.858-50.107,45.366-60.637,13.609-9.879,32.25-.869,38.59,7.723,18.232,24.7,27.113,69.174,37.293,149.824Z" transform="translate(-527.381 -208.453)" fill="#455a64"/>
                <path id="Path_20059" data-name="Path 20059" d="M552.207,222.842c-2.751,3.777-5.424,7.611-8.052,11.477.717-1.5,1.439-3.005,2.145-4.515.051-.108-.108-.2-.165-.091-.977,1.891-1.876,3.807-2.753,5.735q-5.265,7.8-10.21,15.809a41.455,41.455,0,0,0-3.616,7.071,31.75,31.75,0,0,0-1.776,7.52,39.806,39.806,0,0,0-.123,7.719,53.245,53.245,0,0,0,1.119,7.874,50.416,50.416,0,0,0,2.772,8.6c.583,1.357,1.2,2.7,1.874,4.019.613,1.2,1.859,3.654,1.84,3.749-.25,1.359-.5,2.31-.676,3.453q-.264,1.745-.526,3.489c-.352,2.327-3.372,24.97-3.713,27.3-.676,4.623-1.257,9.25-1.833,13.885-.331,2.66-.5,5.345-.88,8-.015.106.148.15.165.04.384-2.312.956-4.593,1.375-6.9s.848-4.614,1.28-6.922c.875-4.661,4.241-29.677,4.973-34.364q.3-1.946.606-3.887a25.5,25.5,0,0,0,.494-4.326s-4.152-8.529-5.765-14.51a51.376,51.376,0,0,1-1.649-7.711,40.39,40.39,0,0,1-.093-7.66,33.652,33.652,0,0,1,1.471-7.52,38.762,38.762,0,0,1,3.258-7.158c2.711-4.816,5.591-9.544,8.512-14.235q4.969-7.98,10.089-15.865C552.408,222.832,552.268,222.76,552.207,222.842Z" transform="translate(-527.527 -192.385)" fill="#263238"/>
              </g>
              <g id="Group_13096" data-name="Group 13096" transform="translate(6.821 105.333)">
                <g id="Group_13094" data-name="Group 13094" transform="translate(0.585 0.224)">
                  <path id="Path_20060" data-name="Path 20060" d="M512.673,297.473c8.5,10.911,30.165,11.948,84.46,19.68,7.513,1.068,29.327-49.923,21.362-51.477-10.032-1.958-49.387-7.384-52.314-7.418C541.486,257.976,506.9,290.072,512.673,297.473Z" transform="translate(-512.035 -258.256)" fill="#d3766a"/>
                  <g id="Group_13093" data-name="Group 13093" transform="translate(60.771 5.527)">
                    <path id="Path_20061" data-name="Path 20061" d="M575.52,260.864s22.948,2.257,34.639,7.174c15.655,6.583,26.458,18.713,30.678,24.071,8.811,11.18,22.382,44.306,13.522,49.88-8.018,5.044-20.18-29.516-20.18-29.516s18.213,33.192,7.442,37.49-22.609-36.623-22.609-36.623,17.95,34.523,6.14,37.2c-8.925,2.022-21.733-34.44-21.733-34.44s15.224,29.781,6.134,32.257c-10.042,2.734-23.976-30.18-23.976-30.18-24.163,2.4-36.651-6.337-44.794-13.611C538.812,302.8,575.52,260.864,575.52,260.864Z" transform="translate(-540.707 -260.864)" fill="#d3766a"/>
                    <g id="Group_13092" data-name="Group 13092" transform="translate(59.448 39.68)">
                      <path id="Path_20062" data-name="Path 20062" d="M582.269,279.631c2.281,3.821,4.616,7.675,6.549,11.685s3.728,8.094,5.28,12.266c3.8,10.235,4.584,17.24,4.489,16.812-2.255-10.106-8.953-24.574-10.888-28.586s-3.658-8.1-5.585-12.109C582.065,279.6,582.216,279.54,582.269,279.631Z" transform="translate(-553.81 -279.586)" fill="#263238"/>
                      <path id="Path_20063" data-name="Path 20063" d="M575.359,282.8c2.7,5.006,5.566,9.875,8.048,15,2.467,5.1,4.364,10.157,6.475,15.415.161.4-.11.358-.288-.042-2.321-5.169-4.862-9.769-7.242-14.911-2.372-5.123-4.561-10.379-7.117-15.411C575.2,282.772,575.319,282.719,575.359,282.8Z" transform="translate(-561.51 -276.033)" fill="#263238"/>
                      <path id="Path_20064" data-name="Path 20064" d="M569.029,284.465c4.519,7.439,7.66,15.7,10.549,23.883.142.407-.2.309-.371-.1-3.357-8.005-5.935-14.309-10.438-23.628C568.7,284.478,568.933,284.308,569.029,284.465Z" transform="translate(-568.755 -274.193)" fill="#263238"/>
                    </g>
                  </g>
                </g>
                <g id="Group_13095" data-name="Group 13095">
                  <path id="Path_20065" data-name="Path 20065" d="M625.267,264.247l-44.7,52.6s-61.059-4.25-68.089-20.335,39.459-39.531,53.937-38.268S625.267,264.247,625.267,264.247Z" transform="translate(-511.759 -258.099)" fill="#455a64"/>
                  <path id="Path_20066" data-name="Path 20066" d="M526.469,265.261c3.51-2.4,13.478-8.09,23.52-6.965a.087.087,0,0,1,0,.174c-8.234.252-19.845,4.89-23.435,6.935A.084.084,0,0,1,526.469,265.261Z" transform="translate(-495.333 -258.15)" fill="#263238"/>
                  <path id="Path_20067" data-name="Path 20067" d="M539.952,305.23c17.567-18.607,33.208-40.828,36.21-44.508.142-.174-.155-.384-.288-.2-2.755,3.762-23.387,27.219-36.239,44.488C539.486,305.211,539.783,305.41,539.952,305.23Z" transform="translate(-480.598 -255.575)" fill="#263238"/>
                </g>
              </g>
              <g id="Group_13098" data-name="Group 13098" transform="translate(0 31.885)">
                <rect id="Rectangle_2377" data-name="Rectangle 2377" width="99.036" height="76.078" transform="translate(0 105.309) rotate(-78.463)" fill="#6300df"/>
                <g id="Group_13097" data-name="Group 13097" transform="translate(38.557)">
                  <rect id="Rectangle_2378" data-name="Rectangle 2378" width="36.057" height="10.926" transform="matrix(0.98, 0.201, -0.201, 0.98, 2.197, 7.338)" fill="#ebebeb"/>
                  <path id="Path_20068" data-name="Path 20068" d="M550.826,236.444l-4.35-.893,1.013-4.935-10.569-2.17-1.013,4.935-4.349-.893L533.4,223.5l19.329,3.969Z" transform="translate(-521.33 -223.497)" fill="#ebebeb"/>
                </g>
              </g>
              <g id="Group_13104" data-name="Group 13104" transform="translate(0.038 5.571)">
                <g id="Group_13101" data-name="Group 13101" transform="translate(0 1.382)">
                  <path id="Path_20069" data-name="Path 20069" d="M618.816,228.566c35.9,45.686,49.446,127.758,29.518,134.154-18.209,5.846-93.1-12.893-115.4-20.47-6.551-2.228,13.686-53.168,20.693-50.8,8.472,2.866,54.787,13.84,55.686,13.862,1.924.042-8.368-50.485-12.785-73.382C590.373,200.033,605.334,211.41,618.816,228.566Z" transform="translate(-482.714 -211.733)" fill="#d3766a"/>
                  <g id="Group_13100" data-name="Group 13100" transform="translate(0 56.997)">
                    <path id="Path_20070" data-name="Path 20070" d="M519.6,242.209c-3.79,4.3-.721,9.383-.721,9.383a12.227,12.227,0,0,0-6.676,4.958c-2.579,4.326,3.071,10.269,3.071,10.269a15.092,15.092,0,0,0-6.208,6.352c-2.054,4.39,2.794,11.2,2.794,11.2a13.217,13.217,0,0,0-1.939,9.023c1.558,8.347,13.631,13.084,21.276,16.174s32.219,4.693,36.869,5.473l20.252-48.889s-30.337-23.6-39.838-25.96C540.473,238.205,523.856,237.381,519.6,242.209Z" transform="translate(-508.559 -238.625)" fill="#d3766a"/>
                    <g id="Group_13099" data-name="Group 13099" transform="translate(3.368 12.321)">
                      <path id="Path_20071" data-name="Path 20071" d="M513.853,244.438c9.016.068,17.524,2.8,26.17,5.042a.155.155,0,0,1-.081.3c-8.573-2.331-17.5-2.931-26.144-4.915A.218.218,0,0,1,513.853,244.438Z" transform="translate(-506.237 -244.438)" fill="#263238"/>
                      <path id="Path_20072" data-name="Path 20072" d="M512.086,251.656a23.5,23.5,0,0,1,5.979,1.431q3.119.979,6.2,2.06,6.177,2.162,12.238,4.631c.178.072.11.365-.081.3-4.105-1.431-8.232-2.8-12.395-4.052q-3.125-.941-6.263-1.836a28.032,28.032,0,0,1-5.835-1.956A.312.312,0,0,1,512.086,251.656Z" transform="translate(-508.317 -236.358)" fill="#263238"/>
                      <path id="Path_20073" data-name="Path 20073" d="M510.256,260.234c1.776,0,3.673.962,5.314,1.575q2.795,1.046,5.6,2.056c3.739,1.35,7.478,2.7,11.263,3.917.188.062.108.358-.083.3-3.849-1.219-7.717-2.384-11.556-3.637q-2.829-.922-5.646-1.876c-1.6-.543-3.656-1.036-4.966-2.149A.109.109,0,0,1,510.256,260.234Z" transform="translate(-510.148 -226.754)" fill="#263238"/>
                    </g>
                  </g>
                </g>
                <g id="Group_13103" data-name="Group 13103" transform="translate(61.315)">
                  <path id="Path_20074" data-name="Path 20074" d="M601.584,303.974c.579-.348-10.18-49.115-13.787-74.564s7.757-23,24.114-1.248c17.518,23.306,48.711,86.389,37.905,133.1-3.5,15.127-111.87-6.062-111.87-6.062l14.6-62.288S600.688,304.51,601.584,303.974Z" transform="translate(-536.975 -211.082)" fill="#455a64"/>
                  <path id="Path_20075" data-name="Path 20075" d="M615.918,271.5c-17.677,5.186-36.839,2.552-44.66,1.081-1.134-6.121-3.876-19.387-6.672-33.724,18.569,2.056,31.174-.593,38.056-2.9A241.4,241.4,0,0,1,615.918,271.5Z" transform="translate(-507.151 -183.231)" fill="#ebebeb"/>
                  <g id="Group_13102" data-name="Group 13102" transform="translate(0 49.429)">
                    <path id="Path_20076" data-name="Path 20076" d="M544.82,302.333c6.589-21.687,10.227-45.478,11.155-49.579.044-.195-.273-.244-.31-.045-.7,4.072-7.806,30.809-11.185,49.575C544.441,302.5,544.754,302.543,544.82,302.333Z" transform="translate(-529.663 -214.05)" fill="#263238"/>
                    <path id="Path_20077" data-name="Path 20077" d="M614.346,268.052c-2.092-.358-57.417-15.939-69.516-17.814-.191-.03-.021-.666.18-.63,37.174,6.558,67.718,16.5,70.06,17.431C617.845,268.143,618.241,268.722,614.346,268.052Z" transform="translate(-529.362 -217.382)" fill="#263238"/>
                    <path id="Path_20078" data-name="Path 20078" d="M573.195,278.364c.04-.108-3.648-18.779-4.3-19.945-.668-1.208-2.117-3.891-2.713-5.142-1.2-2.524-2.236-5.1-3.338-7.66-.093-.21.227-.373.318-.163,1.191,2.473,2.6,4.843,4.012,7.185.706,1.149,1.409,2.308,2.115,3.448.053.076-3.4-18.247-3.889-21.464-.038-.237.22-.3.295-.1,1.039,3.239,8.289,39.942,9.283,44.009A16.538,16.538,0,0,1,573.195,278.364Z" transform="translate(-509.122 -234.402)" fill="#263238"/>
                    <path id="Path_20079" data-name="Path 20079" d="M560.775,287.2c-3.609-1-18.09-3.34-21.613-3.847a46.44,46.44,0,0,0,1.28-7.916.173.173,0,0,0-.3-.1c-.822,1.208-2.234,7.579-2.654,9.084-.081.286,19.506,2.745,23.255,2.944A.085.085,0,0,0,560.775,287.2Z" transform="translate(-537.488 -188.642)" fill="#263238"/>
                  </g>
                </g>
              </g>
            </g>
            <g id="Group_13118" data-name="Group 13118" transform="translate(62.84)">
              <path id="Path_20080" data-name="Path 20080" d="M546.189,217.3s1.454,14.332,13.334,16.564,34.08-13.374,34.08-13.374-8.915-12-25.025-12.039C553.086,208.416,546.189,217.3,546.189,217.3Z" transform="translate(-529.234 -115.823)" fill="#d3766a"/>
              <g id="Group_13117" data-name="Group 13117">
                <g id="Group_13106" data-name="Group 13106" transform="translate(23.829 59.838)">
                  <path id="Path_20081" data-name="Path 20081" d="M576.67,230.618c-.636,2.153-11.859,15.72-21.805,14.682-3.239-.343-2.153-18.1-2.153-18.1l-.218-1.331-3.06-18.611,22.378-12.617,3.226-1.655s.5,5.146,1.06,11.562c.028.3.055.6.081.914.043.362.085.7.108,1.043.1.958.189,1.937.263,2.912.057.742.119,1.465.153,2.247.053.784.089,1.545.142,2.329C577.2,221.725,576.926,229.7,576.67,230.618Z" transform="translate(-549.432 -192.982)" fill="#d3766a"/>
                  <path id="Path_20082" data-name="Path 20082" d="M576.1,204.544a37.835,37.835,0,0,1-23.6,21.322l-3.06-18.611,22.378-12.617,3.226-1.655S575.536,198.128,576.1,204.544Z" transform="translate(-549.432 -192.982)" fill="#263238"/>
                </g>
                <g id="Group_13116" data-name="Group 13116">
                  <path id="Path_20083" data-name="Path 20083" d="M540.507,200.658c-8.709,31.937,9.436,40.76,16.327,42.63,6.252,1.7,27.761,6.685,39.724-24.181s-.131-45.01-14.228-49.649S549.219,168.722,540.507,200.658Z" transform="translate(-538.19 -161.288)" fill="#d3766a"/>
                  <g id="Group_13113" data-name="Group 13113" transform="translate(9.226 30.064)">
                    <path id="Path_20084" data-name="Path 20084" d="M545.3,181.994a21.643,21.643,0,0,0,2.285.064,3.687,3.687,0,0,0,2.344-.377,1.179,1.179,0,0,0,.335-1.4,2.923,2.923,0,0,0-2.639-1.337,4.3,4.3,0,0,0-2.974.846A1.257,1.257,0,0,0,545.3,181.994Z" transform="translate(-540.702 -178.934)" fill="#263238"/>
                    <path id="Path_20085" data-name="Path 20085" d="M557.635,184.072a22.206,22.206,0,0,1-2.081-.947,3.7,3.7,0,0,1-1.939-1.371,1.18,1.18,0,0,1,.316-1.4,2.916,2.916,0,0,1,2.957-.04,4.3,4.3,0,0,1,2.3,2.067A1.258,1.258,0,0,1,557.635,184.072Z" transform="translate(-530.277 -177.824)" fill="#263238"/>
                    <g id="Group_13108" data-name="Group 13108" transform="translate(19.295 14.629)">
                      <g id="Group_13107" data-name="Group 13107">
                        <path id="Path_20086" data-name="Path 20086" d="M552.409,186.708c.038-.081.146.144.121.235-.61,2.17-.945,4.758.856,5.975.055.038.021.146-.049.119C551.006,192.1,551.483,188.667,552.409,186.708Z" transform="translate(-551.646 -184.879)" fill="#263238"/>
                        <path id="Path_20087" data-name="Path 20087" d="M554.809,185.862c3.586.6,2.115,7.73-1.206,7.172C550.335,192.483,551.806,185.357,554.809,185.862Z" transform="translate(-551.528 -185.836)" fill="#263238"/>
                      </g>
                      <path id="Path_20088" data-name="Path 20088" d="M554.085,186.2c.538.532,1,1.369,1.738,1.6.85.267,1.66-.345,2.376-.945.072-.064.121.013.1.106-.261,1.371-1.077,2.662-2.581,2.565-1.374-.089-2.084-1.5-2.141-2.94C553.57,186.315,553.868,185.984,554.085,186.2Z" transform="translate(-549.481 -185.507)" fill="#263238"/>
                    </g>
                    <g id="Group_13110" data-name="Group 13110" transform="translate(0 8.141)">
                      <g id="Group_13109" data-name="Group 13109" transform="translate(1.684 1.134)">
                        <path id="Path_20089" data-name="Path 20089" d="M547.738,184.659c0-.089-.2.066-.212.157-.4,2.219-1.244,4.69-3.4,4.991-.066.008-.085.121-.009.127C546.63,190.117,547.708,186.825,547.738,184.659Z" transform="translate(-542.514 -181.83)" fill="#263238"/>
                        <path id="Path_20090" data-name="Path 20090" d="M547.091,183.414c-3.484-1.034-5.3,6.011-2.069,6.969C548.2,191.326,550.014,184.278,547.091,183.414Z" transform="translate(-543.337 -183.31)" fill="#263238"/>
                      </g>
                      <path id="Path_20091" data-name="Path 20091" d="M546.393,184.1c-.655.231-1.38.767-2.056.64-.784-.148-1.157-1.058-1.462-1.914-.032-.089-.1-.045-.129.049-.384,1.337-.3,2.855.928,3.446,1.119.538,2.285-.394,2.95-1.653C546.747,184.432,546.653,184,546.393,184.1Z" transform="translate(-542.543 -182.775)" fill="#263238"/>
                    </g>
                    <path id="Path_20092" data-name="Path 20092" d="M551.724,194.588c-.615.437-1.261,1.07-2.081,1.009a5.972,5.972,0,0,1-2.3-.941.078.078,0,0,0-.115.1,3.03,3.03,0,0,0,2.633,1.66,2.4,2.4,0,0,0,2.064-1.689C551.979,194.6,551.815,194.525,551.724,194.588Z" transform="translate(-537.308 -161.435)" fill="#263238"/>
                    <g id="Group_13111" data-name="Group 13111" transform="translate(3.124 1.927)">
                      <path id="Path_20093" data-name="Path 20093" d="M547.844,201.1s-1.174,3.19-1.513,4.741c-.032.146.328.3.848.443.025.013.036.025.061.015A7.549,7.549,0,0,0,555,205.107c.14-.127-.021-.331-.184-.265a11.387,11.387,0,0,1-7.155.458c-.015-.454,2.194-5.4,1.95-5.468a13.79,13.79,0,0,0-3.7.028c2.251-6.715,5.561-13.014,7.7-19.733a.216.216,0,0,0-.382-.189c-3.936,6.356-6.7,14.027-9.2,20.9C543.717,201.693,547.166,201.227,547.844,201.1Z" transform="translate(-544.016 -179.843)" fill="#263238"/>
                    </g>
                    <g id="Group_13112" data-name="Group 13112" transform="translate(6.9 27.026)">
                      <path id="Path_20094" data-name="Path 20094" d="M545.8,192.533a8.958,8.958,0,0,0,2.745,3.61,4.05,4.05,0,0,0,2.325.78c1.829.006,2.291-1.551,2.336-2.978a9.544,9.544,0,0,0-.216-2.259A11.588,11.588,0,0,1,545.8,192.533Z" transform="translate(-545.798 -191.685)" fill="#263238"/>
                      <path id="Path_20095" data-name="Path 20095" d="M547.093,194.983a4.05,4.05,0,0,0,2.325.78c1.829.006,2.291-1.551,2.336-2.978C549.872,192.484,547.727,193.243,547.093,194.983Z" transform="translate(-544.348 -190.526)" fill="#ff9cbd"/>
                    </g>
                  </g>
                  <path id="Path_20096" data-name="Path 20096" d="M590.646,222.032c-3.406-1.2-9.693-13.317-5.172-30.129,0,0-3.016,15.377-2.518,17.9s-3.506-6.81-.049-20.417c0,0-9.018,3.249-15.9,3.209s-10.765-1.219-11.087-1.812,9.9-.856,13.272-3.052c0,0-19.207,3.02-27.191,1.376-.924-.191,3.328-19.084,17.666-23.51s31.029,9.582,34.749,16.026c0,0,5.795,2.592,9.8,13.408S594.312,223.323,590.646,222.032Z" transform="translate(-534.06 -164.75)" fill="#263238"/>
                  <g id="Group_13115" data-name="Group 13115" transform="translate(48.256 51.717)">
                    <g id="Group_13114" data-name="Group 13114">
                      <path id="Path_20097" data-name="Path 20097" d="M564.344,195.417s8.955-8.874,13.107-5.5-3.868,17.138-9.65,18.171a5.6,5.6,0,0,1-6.844-4.3Z" transform="translate(-560.957 -189.15)" fill="#d3766a"/>
                      <path id="Path_20098" data-name="Path 20098" d="M573.5,191.359a.076.076,0,0,1,0,.151c-4.076.848-6.715,4.006-8.779,7.4,1.386-1.2,3.063-1.689,4.7,0,.087.089-.036.227-.14.184a3.442,3.442,0,0,0-3.942.507,16.624,16.624,0,0,0-2.334,2.69c-.24.309-.82.015-.619-.352l.047-.083C563.219,196.995,568.213,190.9,573.5,191.359Z" transform="translate(-559.402 -186.705)" fill="#263238"/>
                    </g>
                  </g>
                </g>
              </g>
            </g>
          </g>
          <g id="Group_13122" data-name="Group 13122" transform="translate(146.051 245.886)">
            <g id="Group_13121" data-name="Group 13121">
              <path id="Path_20099" data-name="Path 20099" d="M578.633,285.649l.553.14.015-.017C579.017,285.725,578.817,285.7,578.633,285.649Z" transform="translate(-576.124 -275.289)" fill="#d3766a"/>
              <g id="Group_13120" data-name="Group 13120">
                <path id="Path_20100" data-name="Path 20100" d="M603.559,280.761c.076.4.153.786.2,1.185-.015-.076-.015-.153-.03-.231C603.682,281.393,603.62,281.085,603.559,280.761Z" transform="translate(-548.219 -280.761)" fill="#ffc727"/>
                <path id="Path_20101" data-name="Path 20101" d="M603.559,280.761c.076.4.153.786.2,1.185-.015-.076-.015-.153-.03-.231C603.682,281.393,603.62,281.085,603.559,280.761Z" transform="translate(-548.219 -280.761)" fill="#ffc727"/>
                <path id="Path_20102" data-name="Path 20102" d="M577.449,288.365v.017c.585.138,1.153.276,1.723.4C578.6,288.643,578.017,288.5,577.449,288.365Z" transform="translate(-577.449 -272.248)" fill="#ffc727"/>
              </g>
            </g>
          </g>
          <path id="Path_20103" data-name="Path 20103" d="M603.559,280.761c.076.4.153.786.2,1.185-.015-.076-.015-.153-.03-.231C603.682,281.393,603.62,281.085,603.559,280.761Z" transform="translate(-402.167 -34.875)" fill="#dbdbdb"/>
        </g>
      </g>
    </g>
    <g id="Character_1" data-name="Character 1" transform="translate(368.415 103.548)">
      <rect id="Rectangle_2379" data-name="Rectangle 2379" width="283.516" height="261.097" transform="translate(0)" fill="#37474f"/>
      <g id="Group_13167" data-name="Group 13167" transform="translate(19.125 0.194)">
        <g id="Group_13166" data-name="Group 13166">
          <g id="Group_13165" data-name="Group 13165">
            <g id="Group_13140" data-name="Group 13140">
              <g id="Group_13139" data-name="Group 13139">
                <g id="Group_13128" data-name="Group 13128" transform="translate(152.28 117.67)">
                  <path id="Path_20105" data-name="Path 20105" d="M447.39,170.506c34.544,35.016,78,108.673,69.9,123.605-9.023,16.632-57.127-32.454-56.943-35.321.14-2.166-16.782-46.907-29.618-79.448C417.905,146.831,438.848,161.846,447.39,170.506Z" transform="translate(-426.386 -158.886)" fill="#f7a9a0"/>
                  <g id="Group_13127" data-name="Group 13127">
                    <path id="Path_20106" data-name="Path 20106" d="M460.18,259.116c-1.469-4.786-24.5-63.782-31.078-82.44s-.481-24.429,18.319-7.342,60,74.174,69.405,104.473c9.059,29.186-5.966,29.186-25.794,15.731C474.8,278.525,460.18,259.116,460.18,259.116Z" transform="translate(-426.539 -159.158)" fill="#6300df"/>
                    <path id="Path_20107" data-name="Path 20107" d="M438,164.871a13.933,13.933,0,0,1-1.172,3.779,13.763,13.763,0,0,1-2.1,3.351,13.813,13.813,0,0,1,1.172-3.779A13.959,13.959,0,0,1,438,164.871ZM494.955,246a13.836,13.836,0,0,0-1.17,3.779,13.823,13.823,0,0,0,2.1-3.351,14,14,0,0,0,1.17-3.779A14,14,0,0,0,494.955,246Zm-20.364-31a13.82,13.82,0,0,0-1.172,3.779,13.779,13.779,0,0,0,2.1-3.353,14,14,0,0,0,1.17-3.779A14.015,14.015,0,0,0,474.591,215Zm-21.153-7.781a13.833,13.833,0,0,0-3.779-1.172,13.764,13.764,0,0,0,3.351,2.1,13.93,13.93,0,0,0,3.779,1.172A14,14,0,0,0,453.438,207.221Zm19.067,31.343a13.747,13.747,0,0,0-3.777-1.172,13.786,13.786,0,0,0,3.351,2.1,14.007,14.007,0,0,0,3.779,1.172A13.882,13.882,0,0,0,472.505,238.564ZM457,184.877a13.855,13.855,0,0,0-3.779-1.17,13.827,13.827,0,0,0,3.351,2.1,14.008,14.008,0,0,0,3.779,1.172A14.008,14.008,0,0,0,457,184.877Zm-11.827,41.85a13.789,13.789,0,0,0,1.844,3.5,13.847,13.847,0,0,0-.884-3.855,14,14,0,0,0-1.844-3.5A14,14,0,0,0,445.176,226.727Zm39.9,37.352a13.79,13.79,0,0,0,1.844,3.5,13.811,13.811,0,0,0-.884-3.853,13.973,13.973,0,0,0-1.844-3.5A14,14,0,0,0,485.076,264.079Zm-26.865-6.284c-.032.011-.053.021-.085.032.223.267.447.543.691.829a12.983,12.983,0,0,0,3.254-1.742A13.762,13.762,0,0,0,458.211,257.794Zm47.28,22.287a13.783,13.783,0,0,0,3.5-1.842,13.772,13.772,0,0,0-3.855.884,13.924,13.924,0,0,0-3.5,1.844A13.907,13.907,0,0,0,505.491,280.081Zm-70.946-86.448a15.739,15.739,0,0,0-2.5,1.17c.064.17.127.35.191.521a15.366,15.366,0,0,0,2.658-.733,13.86,13.86,0,0,0,3.508-1.84A13.678,13.678,0,0,0,434.545,193.633Z" transform="translate(-420.372 -152.762)" opacity="0.1"/>
                  </g>
                </g>
                <g id="Group_13130" data-name="Group 13130" transform="translate(50.455 109.731)">
                  <g id="Group_13129" data-name="Group 13129">
                    <path id="Path_20108" data-name="Path 20108" d="M509.836,306.656H378.5s20.877-103.01,71.245-147.6c6.225-5.511,20.269-4.258,29.429.295,3.273,1.626,15.015,18.054,18.366,33.588C500.865,208.457,510.2,306.192,509.836,306.656Z" transform="translate(-378.497 -155.412)" fill="#6300df"/>
                  </g>
                  <path id="Path_20109" data-name="Path 20109" d="M435.323,176.2c1.03,3.467,1.882,7.066,2.579,10.682,0-.14.017-.28.019-.42.053-2.03.07-4.1.284-6.119.013-.106.182-.138.2-.017a31.19,31.19,0,0,1,.167,6.164c-.053.969-.112,1.941-.2,2.91.276,1.624.524,3.245.725,4.854.386,3.067,1.418,14.476,1.5,16.746.019.477-.53.553-.663.059-.619-2.293-2.257-14.059-2.779-17.09a165.214,165.214,0,0,1-2.075-17.749C435.082,176.079,435.287,176.077,435.323,176.2Z" transform="translate(-315.141 -132.24)" fill="#263238"/>
                  <path id="Path_20110" data-name="Path 20110" d="M455.728,179.677a13.933,13.933,0,0,1-1.172,3.779,13.722,13.722,0,0,1-2.1,3.351,13.822,13.822,0,0,1,1.172-3.777A13.97,13.97,0,0,1,455.728,179.677Zm-17.8,52.307a13.808,13.808,0,0,0-1.17,3.779,13.839,13.839,0,0,0,2.1-3.353,13.979,13.979,0,0,0,1.17-3.779A14.011,14.011,0,0,0,437.931,231.985ZM395.267,250.71a13.807,13.807,0,0,0-1.17,3.779,15.3,15.3,0,0,0,3.27-7.132A14.012,14.012,0,0,0,395.267,250.71Zm31.362,33.533a13.765,13.765,0,0,0-1.172,3.779,13.8,13.8,0,0,0,2.1-3.353,13.972,13.972,0,0,0,1.172-3.777A14,14,0,0,0,426.63,284.243Zm54.755-64.8a13.82,13.82,0,0,0-1.17,3.777,13.784,13.784,0,0,0,2.1-3.351,14,14,0,0,0,1.17-3.779A14.017,14.017,0,0,0,481.385,219.448Zm17.251,35.586a13.831,13.831,0,0,0-1.17,3.779,13.824,13.824,0,0,0,2.1-3.351,14,14,0,0,0,1.17-3.779A14,14,0,0,0,498.636,255.034Zm-41.748,25.644a13.809,13.809,0,0,0-1.17,3.779,15.3,15.3,0,0,0,3.27-7.13A14.066,14.066,0,0,0,456.888,280.678ZM416.876,211.3a13.823,13.823,0,0,0-1.172,3.777,13.8,13.8,0,0,0,2.1-3.351,14,14,0,0,0,1.17-3.779A13.973,13.973,0,0,0,416.876,211.3Zm49.654-11.7a13.785,13.785,0,0,0-3.779-1.172,13.828,13.828,0,0,0,3.351,2.1,14.008,14.008,0,0,0,3.779,1.172A13.871,13.871,0,0,0,466.529,199.6Zm8.283,42.259a13.783,13.783,0,0,0-3.779-1.17,13.829,13.829,0,0,0,3.351,2.1,14,14,0,0,0,3.779,1.17A14,14,0,0,0,474.812,241.859ZM397.582,286.64a13.734,13.734,0,0,0-3.779-1.17,15.3,15.3,0,0,0,7.132,3.27A14.011,14.011,0,0,0,397.582,286.64Zm78.589,8.561a13.7,13.7,0,0,0-3.783-1.176,14.219,14.219,0,0,0,3.351,2.1c.276.117.53.235.8.352.706.04,1.393.1,2.1.138A14.928,14.928,0,0,0,476.171,295.2Zm-49.064-42.774a13.742,13.742,0,0,0-3.779-1.172,13.8,13.8,0,0,0,3.353,2.1,13.967,13.967,0,0,0,3.777,1.172A13.9,13.9,0,0,0,427.107,252.427Zm39.423-90.242a13.855,13.855,0,0,0-3.779-1.17,15.276,15.276,0,0,0,7.13,3.27A14,14,0,0,0,466.529,162.185Zm8.5,19.6a13.824,13.824,0,0,0,1.844,3.5,13.773,13.773,0,0,0-.884-3.855,14,14,0,0,0-1.844-3.5A14,14,0,0,0,475.033,181.788Zm20.86,97.756a13.725,13.725,0,0,0,1.844,3.5,13.777,13.777,0,0,0-.886-3.855,13.925,13.925,0,0,0-1.844-3.5A14,14,0,0,0,495.893,279.544Zm-56.341-73.182a13.86,13.86,0,0,0,1.844,3.5,13.83,13.83,0,0,0-.884-3.855,14.069,14.069,0,0,0-1.844-3.5A14.015,14.015,0,0,0,439.552,206.362Zm16.221,43.03a13.858,13.858,0,0,0,1.844,3.5,13.832,13.832,0,0,0-.884-3.855,14.012,14.012,0,0,0-1.844-3.5A14.01,14.01,0,0,0,455.773,249.392Zm-75.266,50.451c.011.182.023.362.045.543h.339C380.774,300.205,380.647,300.025,380.507,299.843Zm36.977-.17a14.171,14.171,0,0,0-1.848-3.508,14.051,14.051,0,0,0,.882,3.86c.042.117.1.244.138.36h1.064C417.645,300.152,417.569,299.906,417.484,299.673Zm-7.552-30.328a13.789,13.789,0,0,0,1.844,3.5,13.778,13.778,0,0,0-.886-3.855,13.992,13.992,0,0,0-1.842-3.5A13.921,13.921,0,0,0,409.932,269.345Zm31.805-101.257a13.825,13.825,0,0,0,1.844,3.5,13.847,13.847,0,0,0-.884-3.855,14,14,0,0,0-1.844-3.5A14,14,0,0,0,441.737,168.088Zm35.15,99.246a13.863,13.863,0,0,0,3.5-1.844,13.739,13.739,0,0,0-3.855.886,14,14,0,0,0-3.5,1.842A13.936,13.936,0,0,0,476.887,267.334ZM442.5,298.963a13.839,13.839,0,0,0,3.5-1.844,13.84,13.84,0,0,0-3.858.884,14.069,14.069,0,0,0-3.5,1.844A13.983,13.983,0,0,0,442.5,298.963ZM384.028,270.32c-.085.3-.18.606-.267.892a10.784,10.784,0,0,0,1.787-1.1A10,10,0,0,0,384.028,270.32Zm29.983-36.428a13.691,13.691,0,0,0,3.5-1.844,13.831,13.831,0,0,0-3.855.886,14,14,0,0,0-3.5,1.844A13.941,13.941,0,0,0,414.01,233.892ZM441.574,268.7a13.86,13.86,0,0,0,3.5-1.844,13.831,13.831,0,0,0-3.855.884,14,14,0,0,0-3.5,1.844A14,14,0,0,0,441.574,268.7Zm16.373-49.923a13.824,13.824,0,0,0,3.5-1.844,13.846,13.846,0,0,0-3.855.884,14,14,0,0,0-3.5,1.844A14,14,0,0,0,457.947,218.776ZM492.6,198.908a13.723,13.723,0,0,0,3.5-1.844,13.775,13.775,0,0,0-3.855.886,13.931,13.931,0,0,0-3.5,1.844A13.984,13.984,0,0,0,492.6,198.908Zm-61.966-11.619a13.837,13.837,0,0,0,3.5-1.844,13.845,13.845,0,0,0-3.857.884,14,14,0,0,0-3.5,1.844A13.983,13.983,0,0,0,430.635,187.288Z" transform="translate(-376.247 -149.139)" opacity="0.1"/>
                </g>
                <g id="Group_13138" data-name="Group 13138">
                  <g id="Group_13134" data-name="Group 13134" transform="translate(7.927)">
                    <g id="Group_13132" data-name="Group 13132">
                      <path id="Path_20111" data-name="Path 20111" d="M358.47,176.532c-.278-6.31,1-35.332,3.16-43.331s10.051-30.561,16.344-29.527,4.51,7.825,4.51,7.825,4.841-9,11.081-7.382,3.12,12.09,3.12,12.09,5.644-8.881,11.753-6.823,1.208,12.064,1.208,12.064,4.784-8.359,9.1-4.546c5.195,4.589-5.362,19.006-7.088,28.014-.392,2.045-4.983,42.028-4.983,42.028Z" transform="translate(-358.432 -103.64)" fill="#f7a9a0"/>
                      <g id="Group_13131" data-name="Group 13131" transform="translate(14.827 7.936)">
                        <path id="Path_20112" data-name="Path 20112" d="M388.386,111.959c-7.74,10.621-9.29,16.6-10.15,29.512-.017.252-.4.284-.4.019-.307-12.717.553-20.5,10.057-29.934C388.354,111.1,388.753,111.453,388.386,111.959Z" transform="translate(-351.595 -102.951)" fill="#263238"/>
                        <path id="Path_20113" data-name="Path 20113" d="M382.613,109.459c-7.075,11.734-8.811,18.209-10.708,31.663-.028.189-.352.163-.341-.03.757-13.353,1.793-21.1,10.4-31.9C382.355,108.707,382.937,108.923,382.613,109.459Z" transform="translate(-358.558 -105.661)" fill="#263238"/>
                        <path id="Path_20114" data-name="Path 20114" d="M374.578,107.994c-6.03,11.854-8.241,18.872-8.406,32.17a.244.244,0,0,1-.487.021c-1.151-13.573,1.543-22.352,8.514-32.335C374.674,107.17,374.958,107.248,374.578,107.994Z" transform="translate(-365.428 -107.384)" fill="#263238"/>
                      </g>
                    </g>
                    <g id="Group_13133" data-name="Group 13133" transform="translate(24.3 37.348)">
                      <path id="Path_20115" data-name="Path 20115" d="M393.441,175.47s11.99-11.284,16.165-17.405,11.333-34.65,5.259-36.547c-7.842-2.448-15.22,13.209-17.831,21.348,0,0-18.137-5.68-25.864,4.411S393.441,175.47,393.441,175.47Z" transform="translate(-369.897 -121.261)" fill="#f7a9a0"/>
                      <path id="Path_20116" data-name="Path 20116" d="M412.027,121.443c-8.762,2.927-11.5,13.834-14.625,21.541a.761.761,0,0,1-1.206.331c-7.76-1.874-19.254-2.255-25.557,3.336a.192.192,0,0,1-.278-.265c5.945-6.916,17.268-7.463,25.637-4.864,3.08-7.955,6.306-18.772,16-20.163A.044.044,0,0,1,412.027,121.443Z" transform="translate(-369.435 -121.152)" fill="#263238"/>
                    </g>
                  </g>
                  <g id="Group_13135" data-name="Group 13135" transform="translate(1.892 68.782)">
                    <path id="Path_20117" data-name="Path 20117" d="M482.643,196.047c-7.883,13.645-53.462,55.715-93.191,63-5.392.99-25.917-3.349-30.211-16.967-7.647-24.251-1.53-74.318,2.378-104.439.763-5.884,55.4,6.2,53.986,15.193-1.566,9.953-7.42,46.519-6.52,46.934,3.273,1.511,38.2-13.569,61.122-18.512C486.456,177.757,488.713,185.536,482.643,196.047Z" transform="translate(-355.585 -136.092)" fill="#f7a9a0"/>
                  </g>
                  <g id="Group_13137" data-name="Group 13137" transform="translate(0 85.234)">
                    <path id="Path_20118" data-name="Path 20118" d="M354.908,143.854l62.261,13.48s-5.663,31.814-4.548,31.627,44.794-16.113,61.639-17.785,16.848,5.731,8.3,19.635-64.5,60.461-92.069,60.448c-14.033,0-27.1-9-29.637-13.285C352.945,224.631,354.908,143.854,354.908,143.854Z" transform="translate(-354.692 -143.854)" fill="#455a64"/>
                    <path id="Path_20119" data-name="Path 20119" d="M354.908,143.854l62.261,13.48s-5.663,31.814-4.548,31.627,44.794-16.113,61.639-17.785,16.848,5.731,8.3,19.635-64.5,60.461-92.069,60.448c-14.033,0-27.1-9-29.637-13.285C352.945,224.631,354.908,143.854,354.908,143.854Z" transform="translate(-354.692 -143.854)" fill="#6300df"/>
                    <path id="Path_20120" data-name="Path 20120" d="M443.018,184.181a13.88,13.88,0,0,0-1.174,3.779,13.5,13.5,0,0,0,2.1-3.342,14.013,14.013,0,0,0,1.174-3.788A14.532,14.532,0,0,0,443.018,184.181Zm-49.484,55.576a13.909,13.909,0,0,0-1.164,3.777,14.082,14.082,0,0,0,2.1-3.353,13.9,13.9,0,0,0,1.161-3.777A14.5,14.5,0,0,0,393.534,239.757Zm-36.667-38.109a13.523,13.523,0,0,0-1.172,3.779,13.746,13.746,0,0,0,2.1-3.353,14.3,14.3,0,0,0,1.174-3.777A14.129,14.129,0,0,0,356.866,201.648Zm54.213.157a13.425,13.425,0,0,0-1.174,3.777,13.666,13.666,0,0,0,2.1-3.351,14.352,14.352,0,0,0,1.174-3.777A13.682,13.682,0,0,0,411.079,201.805Zm-27.28,15.7a13.842,13.842,0,0,0-1.172,3.777,13.418,13.418,0,0,0,2.1-3.351,13.962,13.962,0,0,0,1.174-3.779A13.686,13.686,0,0,0,383.8,217.506Zm2.4-38.274a13.9,13.9,0,0,0-1.164,3.777,14.015,14.015,0,0,0,2.1-3.353,13.828,13.828,0,0,0,1.161-3.777A14.068,14.068,0,0,0,386.2,179.232ZM358.5,150.78a14.305,14.305,0,0,0-1.174,3.777,13.51,13.51,0,0,0,2.1-3.342,13.916,13.916,0,0,0,1.172-3.788A14.505,14.505,0,0,0,358.5,150.78Zm111.976,32.161a13.713,13.713,0,0,0-1.844-3.5,13.834,13.834,0,0,0,.884,3.855,14.232,14.232,0,0,0,1.844,3.5A13.835,13.835,0,0,0,470.474,182.941ZM433.6,208.388a14.247,14.247,0,0,0-1.844-3.5,13.9,13.9,0,0,0,.882,3.858,13.583,13.583,0,0,0,1.844,3.5A13.993,13.993,0,0,0,433.6,208.388ZM405.9,179.711a13.962,13.962,0,0,0-1.844-3.5,15.259,15.259,0,0,0,2.728,7.353A13.939,13.939,0,0,0,405.9,179.711Zm-3.586,41.506a13.9,13.9,0,0,0-1.844-3.5,13.884,13.884,0,0,0,.882,3.855,14.245,14.245,0,0,0,1.844,3.5A13.736,13.736,0,0,0,402.317,221.218ZM366.8,216.735a13.917,13.917,0,0,0-1.844-3.5,13.993,13.993,0,0,0,.882,3.855,13.845,13.845,0,0,0,1.844,3.5A13.905,13.905,0,0,0,366.8,216.735Zm11.2-58.67a14.124,14.124,0,0,0-1.844-3.508,13.977,13.977,0,0,0,.882,3.866,14.382,14.382,0,0,0,1.844,3.5A13.9,13.9,0,0,0,378,158.065Zm-4.19,33.291a14.292,14.292,0,0,0-1.844-3.508,13.759,13.759,0,0,0,.882,3.855,13.912,13.912,0,0,0,1.844,3.508A13.818,13.818,0,0,0,373.809,191.356Zm84.25,10.182a14.1,14.1,0,0,0-3.5,1.844,15.277,15.277,0,0,0,7.355-2.728A13.8,13.8,0,0,0,458.06,201.538Zm-65.868-1.52a14.047,14.047,0,0,0-3.5,1.844,15.259,15.259,0,0,0,7.352-2.728A13.829,13.829,0,0,0,392.192,200.018Zm6.212-39.126a14.269,14.269,0,0,0-3.5,1.844,13.991,13.991,0,0,0,3.855-.882,13.561,13.561,0,0,0,3.5-1.844A13.9,13.9,0,0,0,398.4,160.892Zm-35.347,12.283a13.809,13.809,0,0,0-3.5,1.844,15.261,15.261,0,0,0,7.353-2.728A13.934,13.934,0,0,0,363.057,173.175Zm58.782,53.07a14.192,14.192,0,0,0-3.5,1.844,15.228,15.228,0,0,0,7.353-2.726A13.9,13.9,0,0,0,421.84,226.245Zm-47.326,10.35a13.758,13.758,0,0,0-3.5,1.844,15.278,15.278,0,0,0,7.355-2.728A13.815,13.815,0,0,0,374.513,236.595Zm51-52.68a14.172,14.172,0,0,0-3.5,1.844,13.931,13.931,0,0,0,3.857-.884,13.454,13.454,0,0,0,3.5-1.844A13.831,13.831,0,0,0,425.517,183.914Z" transform="translate(-353.571 -139.854)" opacity="0.1"/>
                    <g id="Group_13136" data-name="Group 13136" transform="translate(2.454 14.709)">
                      <path id="Path_20121" data-name="Path 20121" d="M385.713,165.42a97.033,97.033,0,0,1-2.473,14.086c-1.051,4.705-2.52,9.264-3.913,13.864-.032.1-.193.047-.165-.057,1.2-4.625,2.064-9.345,3.088-14.014s1.73-9.387,2.925-13.993C385.251,165.009,385.734,165.117,385.713,165.42Z" transform="translate(-329.756 -134.744)" fill="#263238"/>
                      <path id="Path_20122" data-name="Path 20122" d="M412.21,161.3c-7.211-1.793-14.51-3.2-21.814-4.589s-14.618-2.791-21.962-4c-4.15-.682-8.3-1.388-12.471-1.924-.11-.015-.161.163-.051.193,7.2,1.793,14.5,3.232,21.782,4.665q10.949,2.156,21.952,4.091c4.142.729,8.3,1.384,12.471,1.922C412.324,161.693,412.422,161.356,412.21,161.3Z" transform="translate(-355.85 -150.794)" fill="#263238"/>
                      <path id="Path_20123" data-name="Path 20123" d="M392.161,201.053c1.151-1.013,2.416-1.874,3.618-2.823,1.168-.92,2.344-1.827,3.523-2.734,2.4-1.846,4.807-3.679,7.2-5.532,4.8-3.709,9.5-7.533,14.252-11.3q4.063-3.221,8.048-6.534c.108-.091.259.061.153.159-3.266,3.073-6.568,6.119-9.968,9.048.43-.206.861-.411,1.284-.623,1.3-.649,2.582-1.352,3.855-2.056.112-.061.193.1.093.17a34.033,34.033,0,0,1-3.722,2.3q-.947.509-1.924.958c-.314.146-.625.288-.948.411l-.021.008c-.772.651-1.541,1.308-2.323,1.944q-7.052,5.739-14.411,11.07c-1.354.981-2.724,1.948-4.12,2.865-1.475.971-2.893,2.028-4.44,2.883A.13.13,0,0,1,392.161,201.053Z" transform="translate(-315.246 -126.943)" fill="#263238"/>
                    </g>
                  </g>
                </g>
              </g>
            </g>
            <g id="Group_13158" data-name="Group 13158" transform="translate(112.215 11.577)">
              <g id="Group_13141" data-name="Group 13141" transform="translate(19.632 122.192)">
                <path id="Path_20124" data-name="Path 20124" d="M421.3,177.816l7.265-11.062,6.847,9.3-2.8,8.221-7.765.165Z" transform="translate(-411.968 -166.753)" fill="#263238"/>
                <path id="Path_20125" data-name="Path 20125" d="M429.783,175.184,416.9,260.891l13.09,30.2L441.8,259.944l-4.249-84.925Z" transform="translate(-416.899 -157.5)" fill="#263238"/>
              </g>
              <g id="Group_13156" data-name="Group 13156">
                <g id="Group_13143" data-name="Group 13143" transform="translate(12.917 70.817)">
                  <g id="Group_13142" data-name="Group 13142">
                    <path id="Path_20126" data-name="Path 20126" d="M439.658,193.09c-7.569,1.84-20.653-9.661-25.852-19.016-.352-.642.591-7.433,1.348-15.737.441-5.04.81-10.665.778-15.822l32.388,7.654s-3.109,10.829-3,19.817a11.63,11.63,0,0,0,.237,2.113c.011.1.038.216.049.352C446.288,176.464,446.972,191.305,439.658,193.09Z" transform="translate(-413.73 -142.514)" fill="#f7a9a0"/>
                  </g>
                  <path id="Path_20127" data-name="Path 20127" d="M415.844,142.773c.984,6.823,5.615,29.281,24.069,29.58a18.526,18.526,0,0,0,3.33-.2c-.019-.136-.04-.239-.047-.339a11.417,11.417,0,0,1-.244-2.126c-.112-8.98,2.995-19.813,2.995-19.813Z" transform="translate(-411.364 -142.224)" fill="#263238"/>
                </g>
                <g id="Group_13155" data-name="Group 13155">
                  <g id="Group_13144" data-name="Group 13144" transform="translate(7.234 13.648)">
                    <path id="Path_20128" data-name="Path 20128" d="M411.467,136.558c-2.474,11.731,6.484,44.194,15.26,50.83,12.723,9.62,32.1,8.932,39.9-6.03,7.567-14.5-4.856-56.6-14.523-62.481C437.867,110.217,415.121,119.231,411.467,136.558Z" transform="translate(-411.049 -115.541)" fill="#f7a9a0"/>
                  </g>
                  <g id="Group_13150" data-name="Group 13150" transform="translate(28.004 39.459)">
                    <g id="Group_13145" data-name="Group 13145" transform="translate(3.955 12.667)">
                      <path id="Path_20129" data-name="Path 20129" d="M425.347,134.548c-.038-.078-.142.15-.114.24.661,2.17,1.053,4.767-.731,6.03-.055.038-.019.148.053.119C426.879,139.941,426.322,136.5,425.347,134.548Z" transform="translate(-420.745 -132.759)" fill="#263238"/>
                      <path id="Path_20130" data-name="Path 20130" d="M424.744,133.728c-3.595.685-1.958,7.823,1.371,7.187C429.392,140.29,427.756,133.154,424.744,133.728Z" transform="translate(-422.715 -133.695)" fill="#263238"/>
                    </g>
                    <g id="Group_13146" data-name="Group 13146" transform="translate(21.738 8.291)">
                      <path id="Path_20131" data-name="Path 20131" d="M431.106,133c0-.087.2.066.214.157.437,2.228,1.312,4.7,3.48,4.979.068.008.087.123.011.129C432.291,138.481,431.163,135.181,431.106,133Z" transform="translate(-431.103 -130.127)" fill="#263238"/>
                      <path id="Path_20132" data-name="Path 20132" d="M432.553,131.744c3.493-1.085,5.407,5.981,2.17,6.986C431.538,139.719,429.624,132.651,432.553,131.744Z" transform="translate(-431.104 -131.631)" fill="#263238"/>
                    </g>
                    <path id="Path_20133" data-name="Path 20133" d="M423.268,135.57a28.511,28.511,0,0,0,2.541-1.609c.969-.625,1.8-1.026,2.279-2.132a1.549,1.549,0,0,0-.661-1.772c-1.289-.7-2.664-.229-3.862.479a5.641,5.641,0,0,0-2.622,3.105A1.652,1.652,0,0,0,423.268,135.57Z" transform="translate(-420.849 -125.488)" fill="#a6a6a6"/>
                    <path id="Path_20134" data-name="Path 20134" d="M436.167,131.9a28.438,28.438,0,0,1-3.006-.087,4.844,4.844,0,0,1-3.048-.672,1.548,1.548,0,0,1-.335-1.861c.748-1.261,2.175-1.556,3.565-1.558a5.636,5.636,0,0,1,3.839,1.331A1.652,1.652,0,0,1,436.167,131.9Z" transform="translate(-411.045 -127.719)" fill="#a6a6a6"/>
                    <path id="Path_20135" data-name="Path 20135" d="M426.582,144.29c.646.4,1.339.988,2.155.871a5.981,5.981,0,0,0,2.251-1.1.079.079,0,0,1,.121.091A3.051,3.051,0,0,1,428.578,146a2.419,2.419,0,0,1-2.187-1.558C426.327,144.317,426.486,144.232,426.582,144.29Z" transform="translate(-414.66 -109.441)" fill="#263238"/>
                    <g id="Group_13148" data-name="Group 13148" transform="translate(12.649 1.488)">
                      <g id="Group_13147" data-name="Group 13147">
                        <path id="Path_20136" data-name="Path 20136" d="M426.894,154.631a7.731,7.731,0,0,0,5.793,2.2,9.732,9.732,0,0,0,2.736-.5,2.9,2.9,0,0,0,.5-.178c.157-.055.3-.108.466-.184a.566.566,0,0,0,.331-.6l0-.015a1.063,1.063,0,0,0-.074-.223l0-.017-.049-.193c-.343-1.713-1.1-4.262-1.1-4.262.693.167,4.19.869,3.938-.011-2.128-7.259-4.493-15.337-8.143-22.113a.211.211,0,0,0-.392.15c1.77,7.058,4.767,13.76,6.655,20.822a13.488,13.488,0,0,0-3.8-.263c-.225.125,1.553,4.9,1.647,5.685a.279.279,0,0,1,0,.085c-2.777,1.022-5.129.651-8.347-.632C426.862,154.3,426.722,154.484,426.894,154.631Z" transform="translate(-426.816 -128.421)" fill="#263238"/>
                      </g>
                    </g>
                    <g id="Group_13149" data-name="Group 13149" transform="translate(12.385 27.592)">
                      <path id="Path_20137" data-name="Path 20137" d="M434.373,142.193a9.176,9.176,0,0,1-3.1,3.457,4.135,4.135,0,0,1-2.435.6c-1.867-.144-2.211-1.77-2.139-3.23a9.9,9.9,0,0,1,.407-2.287A11.861,11.861,0,0,0,434.373,142.193Z" transform="translate(-426.692 -140.737)" fill="#263238"/>
                      <path id="Path_20138" data-name="Path 20138" d="M431.275,144.45a4.134,4.134,0,0,1-2.435.6c-1.867-.144-2.211-1.77-2.139-3.23C428.646,141.672,430.774,142.623,431.275,144.45Z" transform="translate(-426.692 -139.537)" fill="#ff9cbd"/>
                    </g>
                  </g>
                  <g id="Group_13151" data-name="Group 13151" transform="translate(28.308 33.776)" opacity="0.2">
                    <path id="Path_20139" data-name="Path 20139" d="M432.578,128.377a25.342,25.342,0,0,0,3.5-.513c1.162-.3,2.249-.827,3.421-1.1a19.256,19.256,0,0,1,6.753-.038c.2.023.193.15,0,.131a16.735,16.735,0,0,0-7.054.583,21.334,21.334,0,0,1-5.689,1.365c-4.485.318-8.843,1.2-12.4,4.129a.023.023,0,0,1-.032-.034A21.21,21.21,0,0,1,432.578,128.377Z" transform="translate(-420.909 -123.466)"/>
                    <path id="Path_20140" data-name="Path 20140" d="M431.908,126.874a24.365,24.365,0,0,0,3.321-.487c1.1-.286,2.132-.784,3.243-1.045a18.289,18.289,0,0,1,6.4-.036c.189.021.182.142,0,.125a15.844,15.844,0,0,0-6.687.551,20.169,20.169,0,0,1-5.394,1.295c-4.252.3-8.383,1.14-11.759,3.915-.021.019-.053-.013-.032-.032A20.1,20.1,0,0,1,431.908,126.874Z" transform="translate(-420.992 -125.038)"/>
                  </g>
                  <g id="Group_13152" data-name="Group 13152" transform="translate(0.506)">
                    <path id="Path_20141" data-name="Path 20141" d="M418.242,171.527s-11.348-18.713-10.3-29.535c.475-4.892,7.138-8.19,7.138-8.19a11.053,11.053,0,0,1,3.487-11.119c5.778-5.449,19.788-4.237,19.788-4.237s9.069-13.128,21.92-7.933,4.491,19.762,4.491,19.762,4.718,6.687-6.791,11.924c-11.208,5.1-34.135.106-34.135.106a79.841,79.841,0,0,1-.339,23.738C422.689,170.488,418.242,171.527,418.242,171.527Z" transform="translate(-407.875 -108.885)" fill="#a6a6a6"/>
                    <path id="Path_20142" data-name="Path 20142" d="M437.449,114.562a22.528,22.528,0,0,0-9.038-1.645,24.278,24.278,0,0,0-8.139,1.278c-4.618,1.662-8.726,5.07-9.5,10.146a9.416,9.416,0,0,0,1.8,7.111c.064.083.187-.032.121-.114-2.976-3.675-1.416-9.4,1.651-12.478,3.47-3.487,8.777-4.811,13.552-5.015a39.691,39.691,0,0,1,9.472.992A.144.144,0,0,0,437.449,114.562Z" transform="translate(-404.753 -104.831)" fill="#a6a6a6"/>
                    <path id="Path_20143" data-name="Path 20143" d="M452.641,116.925c-1.068-3.595-4.152-5.9-7.617-7.009a18.745,18.745,0,0,0-12.16.432,23.628,23.628,0,0,0-9.943,7.38c-.059.072.066.174.127.1,4.828-5.716,12.386-8.976,19.853-7.4,3.34.7,6.683,2.423,8.232,5.612a11.275,11.275,0,0,1-.282,9.54c-1.732,3.559-4.94,6.25-8.253,8.285a.07.07,0,0,0,.068.123,21.733,21.733,0,0,0,8.226-7.03A12.278,12.278,0,0,0,452.641,116.925Z" transform="translate(-391.048 -109.102)" fill="#a6a6a6"/>
                  </g>
                  <g id="Group_13153" data-name="Group 13153" transform="translate(2.518 53.642)">
                    <path id="Path_20144" data-name="Path 20144" d="M423.394,141.7s-8.605-9.839-13.147-6.655,2.738,18.007,8.641,19.5a5.8,5.8,0,0,0,7.393-3.944Z" transform="translate(-408.824 -134.411)" fill="#f7a9a0"/>
                    <path id="Path_20145" data-name="Path 20145" d="M410.567,136.69a.079.079,0,0,0-.013.155c4.152,1.178,6.649,4.64,8.531,8.3-1.344-1.344-3.042-1.975-4.86-.352-.1.085.021.237.131.2a3.566,3.566,0,0,1,4.04.812,17.112,17.112,0,0,1,2.215,2.957c.225.335.848.074.666-.32l-.042-.089C420.783,143.276,416.067,136.608,410.567,136.69Z" transform="translate(-406.953 -131.86)" fill="#263238"/>
                  </g>
                  <g id="Group_13154" data-name="Group 13154" transform="translate(0 40)">
                    <path id="Path_20146" data-name="Path 20146" d="M430.563,150.5a10,10,0,1,1,7.967-13.635h0a10,10,0,0,1-7.967,13.635ZM428.106,132a8.663,8.663,0,1,0,9.184,5.364A8.7,8.7,0,0,0,428.106,132Z" transform="translate(-394.637 -125.048)" fill="#455a64"/>
                    <path id="Path_20147" data-name="Path 20147" d="M440.059,147.662c-3.794.5-7.751-2.925-9.035-7.982a11.91,11.91,0,0,1,.326-7.3,6.228,6.228,0,0,1,10.335-2.628,11.939,11.939,0,0,1,3.768,6.257c1.357,5.343-.773,10.513-4.75,11.526A6.275,6.275,0,0,1,440.059,147.662ZM436.6,129.353a4.491,4.491,0,0,0-.5.1,5.331,5.331,0,0,0-3.516,3.427,10.647,10.647,0,0,0-.273,6.473c1.178,4.629,4.782,7.726,8.056,6.891s4.962-5.271,3.785-9.9a10.6,10.6,0,0,0-3.328-5.557A5.518,5.518,0,0,0,436.6,129.353Z" transform="translate(-381.919 -127.974)" fill="#455a64"/>
                    <path id="Path_20148" data-name="Path 20148" d="M428.9,136.063l-1.085-.782c1.155-1.607,4.133-4.131,7.145-2.2l-.723,1.125C431.542,132.473,429.007,135.917,428.9,136.063Z" transform="translate(-385.047 -123.038)" fill="#455a64"/>
                    <path id="Path_20149" data-name="Path 20149" d="M408.937,146.547l-1.3-.3c.142-.606,1.458-5.966,4.233-7.172,2.594-1.119,20.377-3.9,21.131-4.023l.208,1.32c-5.1.795-18.8,3.058-20.807,3.93C410.569,141.094,409.281,145.079,408.937,146.547Z" transform="translate(-407.636 -120.054)" fill="#455a64"/>
                  </g>
                </g>
              </g>
              <g id="Group_13157" data-name="Group 13157" transform="translate(6.524 92.94)">
                <path id="Path_20150" data-name="Path 20150" d="M448.961,160.061l-9.052,18.571-21.969-25.68-7.225,7.257s20.481,39.806,20.746,38.09l8.961-15.848,10.528,12.179L452,165.945Z" transform="translate(-410.714 -152.952)" fill="#ebebeb"/>
                <path id="Path_20151" data-name="Path 20151" d="M451.835,175.67c.013-4.741.161-9.519-.045-14.254-.006-.17-.263-.261-.318-.068-1.259,4.493-1.219,22.628-1.537,26.954l-.047-.053c-.437-.526-9.792-10.754-9.9-10.608-1.878,2.484-8.448,14.023-8.917,15.08-3.237-6.32-15.727-29.353-19.656-35.389a.164.164,0,0,0-.295.144c2.787,6.632,19.279,37.625,19.569,37.562.184.161,8.34-14.046,9.385-16.763,1.551,2.2,10.915,13.654,11,12.954A149.577,149.577,0,0,0,451.835,175.67Z" transform="translate(-410.279 -148.142)" fill="#263238"/>
              </g>
            </g>
            <g id="Group_13164" data-name="Group 13164" transform="translate(72.122 216.996)">
              <g id="Group_13161" data-name="Group 13161" transform="translate(0 0.156)">
                <path id="Path_20152" data-name="Path 20152" d="M525.839,241.838c-7.774,11.121-28.942,13.241-81.734,23.584-7.3,1.431-31.273-47.407-23.55-49.336,9.726-2.431,48-9.752,50.868-9.934C495.6,204.615,531.113,234.294,525.839,241.838Z" transform="translate(-354.775 -206.094)" fill="#f7a9a0"/>
                <g id="Group_13160" data-name="Group 13160" transform="translate(0 7.582)">
                  <path id="Path_20153" data-name="Path 20153" d="M465.059,209.671s-22.367,3.381-33.567,8.794c-15,7.249-24.964,19.682-28.825,25.144-8.06,11.4-19.665,44.544-10.7,49.552,8.114,4.534,18.264-29.942,18.264-29.942s-16.149,33.444-5.377,37.106,20.28-37.03,20.28-37.03-15.824,34.734-4.118,36.752c8.847,1.526,19.533-34.843,19.533-34.843s-13.4,29.949-4.364,31.909c9.979,2.168,21.95-30.786,21.95-30.786,23.791,1.123,35.578-8.075,43.185-15.616C503.155,248.884,465.059,209.671,465.059,209.671Z" transform="translate(-388.72 -209.671)" fill="#f7a9a0"/>
                  <g id="Group_13159" data-name="Group 13159" transform="translate(12.439 41.575)">
                    <path id="Path_20154" data-name="Path 20154" d="M408.5,229.334c-2.039,3.86-4.129,7.753-5.818,11.78s-3.239,8.118-4.546,12.285c-3.2,10.22-3.614,17.121-3.542,16.7,1.7-10.015,7.518-24.529,9.209-28.558s3.169-8.124,4.854-12.145C408.7,229.292,408.551,229.243,408.5,229.334Z" transform="translate(-394.589 -229.286)" fill="#263238"/>
                    <path id="Path_20155" data-name="Path 20155" d="M414.782,232.083c-2.391,5.04-4.947,9.957-7.117,15.108-2.158,5.123-3.756,10.171-5.555,15.43-.14.4.123.346.28-.055,2.007-5.182,4.264-9.818,6.333-14.976,2.062-5.14,3.938-10.4,6.185-15.46C414.943,232.051,414.82,232.007,414.782,232.083Z" transform="translate(-386.214 -226.2)" fill="#263238"/>
                    <path id="Path_20156" data-name="Path 20156" d="M419.256,233.394c-4.048,7.516-6.706,15.771-9.116,23.931-.121.407.21.293.358-.114,2.88-8.014,5.083-14.319,9.018-23.677C419.578,233.387,419.341,233.235,419.256,233.394Z" transform="translate(-377.208 -224.764)" fill="#263238"/>
                  </g>
                </g>
              </g>
              <g id="Group_13163" data-name="Group 13163" transform="translate(71.278)">
                <path id="Path_20157" data-name="Path 20157" d="M422.535,213.726l46.256,51.51s46.771-10.74,53.664-22.736c4.536-7.9-30.676-39.878-57.263-36.15Z" transform="translate(-422.141 -205.988)" fill="#6300df"/>
                <path id="Path_20158" data-name="Path 20158" d="M461.788,243.351a14,14,0,0,1-1.17,3.779,13.824,13.824,0,0,1-2.1,3.351,13.814,13.814,0,0,1,1.17-3.777A14.011,14.011,0,0,1,461.788,243.351Zm32.134-2.885a13.816,13.816,0,0,0-1.17,3.777,13.79,13.79,0,0,0,2.1-3.351,14.006,14.006,0,0,0,1.17-3.779A13.97,13.97,0,0,0,493.921,240.466ZM471,229.648a13.808,13.808,0,0,0-3.779-1.17,15.3,15.3,0,0,0,7.13,3.27A13.956,13.956,0,0,0,471,229.648Zm22.9-14.184a13.787,13.787,0,0,0,1.844,3.5,13.815,13.815,0,0,0-.884-3.853,13.973,13.973,0,0,0-1.844-3.5A14,14,0,0,0,493.907,215.464Zm-46.883,11.149a13.724,13.724,0,0,0,1.844,3.5,13.777,13.777,0,0,0-.886-3.855,13.925,13.925,0,0,0-1.844-3.5A14,14,0,0,0,447.023,226.613ZM428.018,214.4a13.862,13.862,0,0,0,3.5-1.844,13.741,13.741,0,0,0-3.855.886,14,14,0,0,0-3.5,1.842A13.938,13.938,0,0,0,428.018,214.4ZM467.4,210.14a13.794,13.794,0,0,0,3.5-1.844,13.846,13.846,0,0,0-3.855.884,14,14,0,0,0-3.5,1.844A13.98,13.98,0,0,0,467.4,210.14Zm14.57,45.287a13.838,13.838,0,0,0,3.5-1.844,13.846,13.846,0,0,0-3.858.884,14.035,14.035,0,0,0-3.5,1.844A13.981,13.981,0,0,0,481.972,255.427Zm34.773-25.686a16.531,16.531,0,0,0-2.774.765,14.255,14.255,0,0,0-3.508,1.85,14.134,14.134,0,0,0,3.86-.892,15.234,15.234,0,0,0,2.743-1.318C516.958,230.019,516.85,229.881,516.744,229.741Z" transform="translate(-420.322 -203.472)" opacity="0.1"/>
                <g id="Group_13162" data-name="Group 13162">
                  <path id="Path_20159" data-name="Path 20159" d="M474.451,214.763c-4.29-3.107-16.36-10.35-31.752-8.421-.136.017-.14.237,0,.233,11.6-.329,27.267,5.74,31.651,8.378C474.464,215.021,474.559,214.839,474.451,214.763Z" transform="translate(-399.684 -206.02)" fill="#263238"/>
                  <path id="Path_20160" data-name="Path 20160" d="M471.263,252.867c-4.784-5.935-9.877-11.609-14.987-17.27s-10.218-11.341-15.475-16.878c-2.969-3.128-5.922-6.276-9-9.3-.08-.078-.233.036-.159.127,4.773,5.928,9.852,11.632,14.915,17.316s10.218,11.348,15.407,16.945c2.933,3.164,5.922,6.274,9,9.3C471.117,253.257,471.4,253.04,471.263,252.867Z" transform="translate(-411.967 -202.245)" fill="#263238"/>
                  <path id="Path_20161" data-name="Path 20161" d="M422.66,213.075a65.917,65.917,0,0,1,8.671-1.973c2.916-.547,5.846-1.045,8.777-1.515,5.833-.935,18.084-3.582,28.851-3.552.119,0-.492.579-.608.572-5.127-.278-41.869,7.033-44.887,7.247a4.69,4.69,0,0,1,.324.613c.061.148-.085.341-.246.235-.377-.254-.646-.572-1-.852A.432.432,0,0,1,422.66,213.075Z" transform="translate(-422.349 -206.005)" fill="#263238"/>
                </g>
              </g>
            </g>
          </g>
        </g>
      </g>
    </g>
  </g>
</svg>
